<svg width="58" height="38" viewBox="0 0 58 38" fill="none" xmlns="http://www.w3.org/2000/svg">
<path d="M0.212097 6.173C0.212097 2.893 2.96511 0.193 6.55811 0H51.6461C55.2481 0.193 58.0001 2.893 58.0001 6.173V31.828C58.0001 35.107 55.2481 37.807 51.6461 38H6.35413C2.75213 37.807 0.00012207 35.107 0.00012207 31.828L0.212097 6.173Z" fill="white"/>
<path d="M39.7166 23.2153C39.6545 23.5258 39.5805 23.8178 39.4972 24.0927C39.414 24.3688 39.3202 24.6251 39.2171 24.8603C39.1048 25.1153 38.9806 25.3518 38.8445 25.5672C38.708 25.7848 38.5596 25.9817 38.3993 26.1578C38.2248 26.3494 38.0306 26.5185 37.8179 26.6652C37.6052 26.8119 37.3766 26.9334 37.1321 27.0299C36.8983 27.1211 36.6512 27.1911 36.3922 27.236C36.1332 27.2822 35.8624 27.3047 35.5783 27.3047H35.3867V27.3021L16.0695 27.3007V27.3047H15.8766C15.6216 27.3047 15.3784 27.2849 15.1499 27.2466C14.9213 27.2069 14.7072 27.1475 14.5077 27.0682C14.2831 26.9784 14.0809 26.8634 13.9012 26.7233C13.7744 26.6229 13.6581 26.5119 13.5564 26.3891L13.5471 26.3957L13.4322 26.2292C13.3093 26.0521 13.2089 25.8553 13.1349 25.6412C13.0609 25.4298 13.0107 25.2012 12.9856 24.9568C12.9697 24.8 12.9636 24.6361 12.9671 24.4653C12.9697 24.3631 12.9759 24.2591 12.9856 24.1534H11.3842C11.2534 24.1534 11.1239 24.1389 10.997 24.1098C10.8715 24.0808 10.7473 24.0358 10.6297 23.9777C10.5161 23.9222 10.4077 23.8509 10.3073 23.7689C10.2082 23.6883 10.1171 23.5945 10.0365 23.4888C9.95454 23.3831 9.88716 23.2708 9.83298 23.1545C9.77881 23.0383 9.73917 22.9141 9.71274 22.7872L9.70482 22.741C9.68368 22.6221 9.67707 22.5018 9.68235 22.3789C9.68764 22.2587 9.70614 22.1385 9.73653 22.0182L9.78145 21.8465C9.83034 21.6602 9.90697 21.4884 10.0087 21.3364C10.1118 21.1792 10.2399 21.0418 10.3866 20.9295C10.5346 20.8145 10.7011 20.7247 10.8794 20.6639C11.0525 20.6058 11.2388 20.5727 11.4278 20.5727H13.6779L13.7361 20.286H7.44409C7.31328 20.286 7.1838 20.2715 7.05827 20.2424C6.93407 20.2134 6.81251 20.1684 6.6936 20.1116C6.57732 20.0535 6.46766 19.9834 6.36724 19.9015C6.26814 19.8209 6.17697 19.7271 6.09638 19.6214C6.01446 19.5157 5.94575 19.4034 5.8929 19.2871C5.83872 19.1695 5.79909 19.0467 5.77266 18.9198L5.76473 18.8736C5.74359 18.7546 5.73566 18.6331 5.74095 18.5102C5.74623 18.3887 5.76473 18.2671 5.79644 18.1482L5.84137 17.9777C5.88629 17.806 5.95764 17.6461 6.04749 17.5021L6.08184 17.4505H5.70395C5.57315 17.4505 5.44366 17.4347 5.31814 17.4056C5.19394 17.3765 5.07238 17.3329 4.95346 17.2748L4.95214 17.2735C4.83719 17.218 4.72752 17.148 4.6271 17.066C4.52801 16.9841 4.43684 16.889 4.35624 16.7846C4.27432 16.6789 4.20693 16.5666 4.15276 16.4503C4.09859 16.3327 4.05895 16.2085 4.03252 16.0804C4.00742 15.9535 3.99685 15.8253 4.00081 15.6972C4.00477 15.5677 4.02327 15.4382 4.05631 15.3114L4.10123 15.1409C4.15012 14.9559 4.22807 14.7842 4.32849 14.6322C4.43155 14.4763 4.55972 14.3389 4.70638 14.2253C4.85568 14.1116 5.02217 14.0205 5.19922 13.961C5.37231 13.9016 5.55861 13.8698 5.74888 13.8698H15.1208L15.1776 13.7179C15.2133 13.6228 15.2503 13.5329 15.2873 13.447C15.3996 13.192 15.5238 12.9555 15.6599 12.7401C15.7973 12.5221 15.9479 12.3239 16.1078 12.1469C16.2835 11.9553 16.4777 11.7848 16.6892 11.6395C16.9019 11.4928 17.1305 11.3713 17.3749 11.2748C17.6088 11.1837 17.8559 11.1136 18.1161 11.0687C18.3738 11.0225 18.646 11 18.9287 11H19.1203V11.0026L38.4376 11.004V11H38.6305C38.8868 11 39.129 11.0194 39.3572 11.0581C39.5853 11.0978 39.7989 11.1572 39.998 11.2365C40.224 11.3264 40.4274 11.4426 40.6071 11.5827C40.7868 11.7241 40.9441 11.8892 41.0749 12.0795C41.1991 12.2579 41.2982 12.4534 41.3735 12.6675C41.4461 12.8776 41.4964 13.1048 41.5215 13.3493C41.5439 13.562 41.5466 13.7892 41.532 14.0271C41.5175 14.2636 41.4831 14.512 41.4329 14.771L41.4158 14.837L39.7166 23.2153Z" fill="#101010"/>
<path d="M38.7785 23.0277C38.5565 24.1257 38.1945 24.9581 37.6897 25.5117C37.185 26.0666 36.4807 26.3454 35.5783 26.3454C33.5779 26.3454 17.8783 26.3454 15.8766 26.3454C15.0794 26.3454 14.5271 26.1239 14.2197 25.6808C13.9122 25.2386 13.8444 24.5841 14.0162 23.7174C14.587 20.9039 15.1578 18.0905 15.7286 15.277C15.9488 14.1759 16.3117 13.3479 16.8173 12.793C17.3229 12.2371 18.0267 11.9592 18.9287 11.9592C20.9292 11.9592 36.63 11.9592 38.6305 11.9592C39.4285 11.9592 39.9808 12.1812 40.2874 12.6238C40.5939 13.0651 40.6626 13.7205 40.4909 14.5873C39.9201 17.4016 39.3479 20.2146 38.7785 23.0277Z" fill="#F15A24"/>
<path d="M51.085 14.8303H52.4882C53.1052 14.8303 53.5346 15.0034 53.7698 15.343C54.0063 15.6839 54.0631 16.1965 53.9284 16.8625L53.1078 20.9083C52.9361 21.7565 52.6533 22.404 52.2649 22.8307C51.8764 23.2575 51.3241 23.4742 50.6318 23.4742H38.0755L35.9166 24.4823C36.5098 23.6116 36.6855 23.3302 37.1202 21.5689L38.1812 16.3353C38.2777 15.8451 38.3068 15.409 38.2671 15.0259C38.2601 14.9589 38.2513 14.8937 38.2407 14.8303H51.085Z" fill="#101010"/>
<path fill-rule="evenodd" clip-rule="evenodd" d="M40.7406 18.4891C40.1473 18.4891 39.7813 18.1455 39.7813 17.6461C39.7813 16.9828 40.2676 16.4807 40.9877 16.4807C41.3325 16.4807 41.6113 16.6023 41.7514 16.8242L41.4263 17.0911C41.3259 16.9445 41.1713 16.8639 40.9573 16.8639C40.5199 16.8639 40.2358 17.1995 40.2358 17.6183C40.2358 17.9117 40.4301 18.1059 40.7802 18.1059C40.9771 18.1059 41.1515 18.0372 41.2955 17.8813L41.5624 18.1535C41.3576 18.3913 41.0735 18.4891 40.7406 18.4891ZM43.0515 16.963H43.4836L43.1876 18.456H42.7767L42.8044 18.308C42.6855 18.4164 42.5296 18.4772 42.3473 18.4772C41.9998 18.4772 41.7038 18.2341 41.7038 17.8099C41.7038 17.3078 42.0672 16.9418 42.527 16.9418C42.7437 16.9418 42.9154 17.0105 43.0132 17.1665L43.0515 16.963ZM42.9181 17.6289C42.9181 17.4267 42.7939 17.2986 42.5772 17.2986C42.3222 17.2986 42.1385 17.4981 42.1385 17.7901C42.1385 17.9923 42.264 18.1204 42.4807 18.1204C42.7357 18.1204 42.9181 17.9209 42.9181 17.6289ZM44.1297 18.4772C43.8668 18.4772 43.617 18.4111 43.4928 18.3226L43.6593 18.0081C43.7862 18.0953 43.9883 18.1508 44.1773 18.1508C44.3807 18.1508 44.4693 18.094 44.4693 18.0055C44.4693 17.7941 43.6778 17.9685 43.6778 17.4651C43.6778 17.1295 43.9923 16.9418 44.427 16.9418C44.6357 16.9418 44.8432 16.9881 44.9793 17.066L44.8234 17.3818C44.6846 17.2959 44.5208 17.2682 44.3834 17.2682C44.1825 17.2682 44.094 17.3343 44.094 17.4149C44.094 17.6342 44.8815 17.4598 44.8815 17.9553C44.8815 18.2975 44.5604 18.4772 44.131 18.4772H44.1297ZM46.2226 16.9418C46.5476 16.9418 46.767 17.1189 46.767 17.4518C46.767 17.5073 46.7604 17.5655 46.7472 17.6289L46.5807 18.456H46.1486L46.3085 17.6566C46.3177 17.621 46.3204 17.5853 46.3204 17.5536C46.3204 17.4016 46.2371 17.3158 46.0654 17.3158C45.846 17.3158 45.6928 17.4373 45.6412 17.6989L45.4906 18.456H45.0586L45.4682 16.3975H45.9015L45.7628 17.0991C45.8936 16.9907 46.0535 16.9418 46.2226 16.9418ZM47.8491 17.6461C47.8491 16.9828 48.334 16.4807 49.0488 16.4807C49.6408 16.4807 49.9949 16.8242 49.9949 17.3237C49.9949 17.987 49.51 18.4891 48.7938 18.4891C48.2032 18.4891 47.8491 18.1442 47.8491 17.6461ZM48.8335 18.1059C49.2708 18.1059 49.5404 17.7597 49.5404 17.3488C49.5404 17.0607 49.3514 16.8639 49.0105 16.8639C48.5719 16.8639 48.3036 17.2101 48.3036 17.621C48.3036 17.909 48.4913 18.1059 48.8335 18.1059ZM51.2647 16.9418C51.5923 16.9418 51.809 17.1189 51.809 17.4492C51.809 17.5047 51.8037 17.5655 51.7892 17.6289L51.6227 18.456H51.1907L51.3519 17.6566C51.3598 17.621 51.3624 17.5853 51.3624 17.5536C51.3624 17.4016 51.2792 17.3158 51.1074 17.3158C50.8881 17.3158 50.7361 17.4373 50.6833 17.6989L50.5327 18.456H50.1006L50.3979 16.963H50.8075L50.7745 17.1242C50.9105 17 51.0823 16.9405 51.266 16.9405L51.2647 16.9418Z" fill="white"/>
<path fill-rule="evenodd" clip-rule="evenodd" d="M51.5699 19.8553L50.5776 21.4475C50.3582 21.799 50.1812 21.9073 49.8945 21.9073C49.7425 21.9073 49.576 21.8571 49.4902 21.7765L49.6897 21.466C49.7504 21.5215 49.8337 21.5585 49.9288 21.5585C50.0425 21.5585 50.1138 21.5056 50.197 21.3748L50.2116 21.3497L49.8667 19.8553H50.3001L50.5221 20.8701L51.1431 19.8553H51.5699ZM49.2259 20.0324C49.3594 19.8884 49.543 19.8329 49.7835 19.8329L49.7055 20.2319C49.6672 20.2293 49.6421 20.2266 49.6064 20.2266C49.3514 20.2266 49.1876 20.3455 49.1321 20.6257L48.9881 21.3471H48.5547L48.852 19.8553H49.2629L49.2259 20.0324ZM48.4331 20.4896C48.4331 20.5702 48.4226 20.6481 48.408 20.7181H47.2651C47.2796 20.9203 47.4038 21.022 47.6509 21.022C47.8029 21.022 47.9482 20.9732 48.05 20.8833L48.231 21.17C48.0592 21.3088 47.8346 21.3695 47.606 21.3695C47.1409 21.3695 46.8436 21.1066 46.8436 20.701C46.8436 20.2015 47.2043 19.8329 47.7236 19.8329C48.1583 19.8329 48.4331 20.0905 48.4331 20.4896ZM47.2955 20.4658H48.0367C48.0367 20.2689 47.9033 20.1579 47.7038 20.1579C47.4963 20.1579 47.3536 20.2795 47.2955 20.4658ZM46.9744 19.8553L46.0482 21.3471H45.6016L45.2713 19.8553H45.6981L45.9147 20.8727L46.541 19.8553H46.9744ZM44.6622 19.8553H45.0916L44.7943 21.3471H44.3649L44.6622 19.8553ZM44.6978 19.4233C44.6978 19.2779 44.8128 19.1643 44.9846 19.1643C45.1365 19.1643 45.2396 19.2594 45.2396 19.381C45.2396 19.5396 45.1233 19.6479 44.9515 19.6479C44.7983 19.6479 44.6978 19.5475 44.6978 19.4233ZM43.9421 19.2898H44.3741L43.9632 21.3471H43.5311L43.9421 19.2898ZM43.4096 20.4909C43.4096 20.5715 43.3977 20.6494 43.3845 20.7181H42.2416C42.2561 20.9216 42.3803 21.0234 42.6274 21.0234C42.7793 21.0234 42.9234 20.9745 43.0264 20.8846L43.2074 21.1713C43.0343 21.3101 42.8097 21.3709 42.5825 21.3709C42.1174 21.3709 41.8201 21.1066 41.8201 20.7023C41.8201 20.2028 42.1808 19.8342 42.6987 19.8342C43.1348 19.8342 43.4096 20.0919 43.4096 20.4909ZM42.272 20.4671H43.0132C43.0132 20.2689 42.8797 20.1579 42.6802 20.1579C42.4715 20.1579 42.3301 20.2808 42.272 20.4671ZM39.9148 19.4074H40.7274C41.3259 19.4074 41.684 19.7206 41.684 20.2174C41.684 20.9018 41.1938 21.3484 40.475 21.3484H39.5263L39.9148 19.4074ZM40.0509 20.9798H40.4895C40.9546 20.9798 41.2295 20.664 41.2295 20.2425C41.2295 19.9544 41.0432 19.7761 40.6772 19.7761H40.2927L40.0509 20.9798Z" fill="white"/>
<path fill-rule="evenodd" clip-rule="evenodd" d="M32.2196 13.5645H35.3035C36.1015 13.5645 36.6538 13.7865 36.9604 14.2278C37.2678 14.67 37.3356 15.3249 37.1638 16.1925L36.1029 21.4222C35.8835 22.5241 35.5202 23.3526 35.0141 23.9075C34.5094 24.4625 33.8051 24.74 32.9027 24.74H29.8981L32.2196 13.5645ZM4.98253 15.5543L5.02745 15.3852C5.11466 15.0536 5.40534 14.829 5.74887 14.829H19.0741C19.2022 14.6347 19.3436 14.4603 19.4956 14.3071C20.0545 13.7429 20.8076 13.4614 21.7523 13.4614C22.5768 13.4614 23.1939 13.686 23.6021 14.1379C24.0117 14.5885 24.128 15.2399 23.951 16.0881L23.5519 18.0146H21.3269L21.6704 16.3617C21.7365 16.0406 21.7431 15.8199 21.6916 15.6984C21.6387 15.5768 21.5158 15.516 21.3256 15.516C21.1256 15.516 20.9745 15.5856 20.8724 15.7248C20.7706 15.8635 20.69 16.067 20.6345 16.3352L19.4705 21.9428C19.4084 22.2374 19.407 22.4528 19.4665 22.5862C19.5246 22.721 19.6405 22.7884 19.814 22.7884C20.1611 22.7884 20.3932 22.5065 20.5103 21.9428L20.9292 19.9265H23.1793L22.742 22.034C22.3535 23.9062 21.2172 24.843 19.3357 24.843C18.5205 24.843 17.9206 24.588 17.5361 24.0767C17.3498 23.8269 17.2309 23.5323 17.1793 23.1927H11.3842C11.1463 23.1927 10.9389 23.0923 10.7936 22.9034C10.6482 22.7144 10.6033 22.4898 10.6627 22.2586L10.7077 22.0894C10.7949 21.7565 11.0856 21.5332 11.4291 21.5332H17.33L17.7885 19.3253H7.44409C7.20626 19.3253 7.00014 19.2249 6.85347 19.0359C6.70813 18.847 6.66189 18.6224 6.72267 18.3912L6.76759 18.222C6.85612 17.8904 7.14548 17.6658 7.48901 17.6658H18.1333L18.3104 16.8175C18.3333 16.7048 18.3584 16.5955 18.3857 16.4898H5.70395C5.46612 16.4898 5.25868 16.3881 5.11334 16.1991C4.96799 16.0102 4.92175 15.7856 4.98253 15.5543ZM25.8932 24.843C24.9921 24.843 24.3632 24.5682 24.0104 24.0172C23.6563 23.4675 23.5823 22.6933 23.7898 21.6957L24.8957 16.3749C25.0952 15.4116 25.481 14.6849 26.0505 14.1961C26.6213 13.7059 27.3572 13.4614 28.2584 13.4614C29.1604 13.4614 29.795 13.7063 30.1623 14.1961C30.5283 14.6863 30.6116 15.413 30.4121 16.3749L29.3061 21.6957C29.0974 22.7012 28.701 23.4781 28.1196 24.0238C27.5374 24.5699 26.7952 24.843 25.8932 24.843ZM26.3213 22.7884C26.5209 22.7884 26.6728 22.7012 26.7785 22.5281C26.8829 22.355 26.9688 22.1119 27.0335 21.8001L28.1685 16.3352C28.22 16.0934 28.228 15.8952 28.1949 15.7433C28.1619 15.5927 28.0443 15.516 27.8448 15.516C27.4722 15.516 27.2264 15.7988 27.1102 16.3617L25.9778 21.812C25.9104 22.133 25.8999 22.3762 25.9435 22.5413C25.9857 22.7052 26.1126 22.7884 26.3213 22.7884ZM32.9503 22.762C33.3572 22.762 33.6025 22.5625 33.6862 22.1634L34.8833 16.4013C34.9348 16.1489 34.9547 15.96 34.9428 15.8345C34.9295 15.7089 34.8754 15.6244 34.7802 15.5808C34.6851 15.5372 34.5292 15.516 34.3125 15.516H34.0654L32.5592 22.762H32.9503Z" fill="white"/>
</svg>
