<svg width="55" height="38" viewBox="0 0 55 38" fill="none" xmlns="http://www.w3.org/2000/svg">
<path d="M6.15509 0.00219727H48.8451C52.2201 0.00219727 55.0001 2.7022 55.0001 6.1752V31.8292C55.0001 35.1082 52.4191 37.8092 48.8451 38.0022H6.15509C5.34473 38.0042 4.54198 37.8462 3.79315 37.5362C3.04432 37.2262 2.36421 36.7712 1.79203 36.1972C1.21985 35.6232 0.766932 34.9422 0.45938 34.1922C0.151828 33.4432 -0.00426904 32.6392 8.87891e-05 31.8292V6.1752C8.87891e-05 2.8952 2.58109 0.195197 6.15509 0.00219727Z" fill="#1F72CD"/>
<path fill-rule="evenodd" clip-rule="evenodd" d="M14.2911 13.2022L14.8971 14.6022V13.0022H20.9511L22.3631 16.0022L23.5741 13.0022H38.7081L40.3231 14.8022L41.9371 13.0022H49.0001L43.9551 19.0022L49.0001 25.0022H41.9371L40.3231 23.2022L38.7091 25.0022H24.7851V23.6012L24.1791 25.0022H20.7491L20.1441 23.6012V25.0022H13.4841L12.6771 23.2022H10.8611L10.0541 25.0022H4.00012L9.04512 13.2022H14.2911ZM29.6281 23.2022H37.4981L40.1211 20.4022L42.5431 23.2022H45.1661L41.5341 19.0022L45.1661 14.8022H42.7441L40.1211 17.6022L37.6991 14.8022H29.8291L29.6281 23.2022ZM31.8481 18.2022V16.6022H36.8921L39.1121 19.0022L36.8921 21.6022H32.0501V20.0022H36.4901V18.2022H31.8491H31.8481ZM6.82512 23.2022H9.04512L9.85212 21.2022H13.8881L14.6951 23.2022H18.7311V16.6022L21.3541 23.2022H23.1701L25.9951 16.6022V23.4022H28.0131V14.8022H24.7851L22.5651 20.6022L19.9421 14.8022H16.7131V22.8022L13.4841 14.8022H10.4571L6.82512 23.2022ZM10.4571 19.6022L11.8701 16.2022L13.2831 19.6022H10.4571Z" fill="white"/>
</svg>
