<svg width="58" height="38" viewBox="0 0 58 38" fill="none" xmlns="http://www.w3.org/2000/svg">
<path d="M0.212097 6.1752C0.212097 2.8952 2.96511 0.195197 6.55811 0.00219727H51.6461C55.2481 0.195197 58.0001 2.8952 58.0001 6.1752V31.8302C58.0001 35.1092 55.2481 37.8092 51.6461 38.0022H6.35413C2.75213 37.8092 0.00012207 35.1092 0.00012207 31.8302L0.212097 6.1752Z" fill="white"/>
<path d="M7.82013 22.1862V29.0022H6.20911V22.1862H7.82013ZM9.82812 22.1862V23.2912H4.00012V22.1862H9.82812ZM10.2311 22.1862H13.0441C13.4391 22.1862 14.0431 22.1862 14.4461 22.3702C14.8491 22.5542 15.0511 22.7392 15.4541 23.1072C15.6551 23.4752 15.8491 23.8442 15.8491 24.2122C15.8491 24.5812 15.8492 24.9492 15.6552 25.1332C15.4542 25.3182 15.4541 25.6862 15.0511 25.6862C14.8491 25.8712 14.4461 26.0552 14.2451 26.0552L13.6401 26.4232H11.4321V25.3182H13.2451C13.4391 25.3182 13.6401 25.3182 13.8421 25.1332C14.0431 25.1332 14.0431 24.9492 14.2451 24.7652C14.2451 24.5812 14.4461 24.3962 14.4461 24.2122C14.4461 24.0282 14.4461 23.8442 14.2451 23.6592C14.2451 23.4752 14.0431 23.4752 13.8421 23.2912C13.6401 23.1072 13.4391 23.1072 13.2451 23.1072H12.0361V28.6332H10.4321L10.2311 22.1862ZM14.2451 28.8172L12.6411 25.8712H14.2451L15.8491 28.8172H14.2451ZM19.2661 23.2912L17.4611 28.8172H15.8491L18.4601 22.0022H19.4681L19.2661 23.2912ZM20.6691 28.8172L18.8631 23.2912L18.6621 22.0022H19.6691L22.2811 28.8172H20.6691ZM20.6691 26.2392V27.3442H17.0581V26.2392H20.6691ZM28.5042 22.1862V29.0022H26.8991L24.0861 24.5812V29.0022H22.6841V22.3702H24.2881L26.8991 26.7912V22.3702H28.5042V22.1862ZM32.9211 26.9762V26.6072C32.9211 26.4232 32.7271 26.4232 32.7271 26.4232L32.3241 26.2392L31.7201 26.0552C31.3171 26.0552 31.1151 25.8712 30.7121 25.6862C30.5111 25.5022 30.1151 25.5022 29.9141 25.3182C29.6431 25.0722 29.4411 24.8882 29.3091 24.7652C29.1081 24.2122 29.1081 23.6592 29.3091 23.2912C29.4411 23.0452 29.6431 22.8612 29.9141 22.7392C30.1151 22.5542 30.5111 22.3702 30.7121 22.3702C31.1151 22.3702 31.5181 22.1862 31.7201 22.1862C32.1231 22.1862 32.7271 22.1862 33.1221 22.3702C33.5251 22.5542 33.7271 22.7392 34.1301 23.1072C34.3311 23.4752 34.5331 23.8442 34.5331 24.2122H32.9211C32.9211 24.0282 32.9211 23.8442 32.7271 23.6592C32.7271 23.4752 32.5261 23.4752 32.3241 23.2912C32.1231 23.1072 31.9211 23.1072 31.7201 23.1072C31.5181 23.1072 31.3171 23.1072 31.1151 23.2912C30.9141 23.2912 30.9141 23.4752 30.7121 23.4752C30.7121 23.6592 30.5111 23.6592 30.5111 23.8442V24.2122L30.7121 24.3962L31.1151 24.5812L31.7201 24.7652C32.1231 24.9492 32.3241 24.9492 32.7271 25.1332C32.9211 25.3182 33.3241 25.3182 33.5251 25.6862C33.7271 25.8712 33.9281 26.0552 33.9281 26.2392C33.9281 26.4232 34.1301 26.7912 34.1301 26.9762C34.1301 27.1602 34.1301 27.5282 33.9281 27.7122C33.7271 27.8972 33.7271 28.0812 33.3241 28.2652C33.1221 28.4492 32.7271 28.6332 32.5261 28.6332C32.1231 28.6332 31.7201 28.8172 31.5181 28.8172C31.1151 28.8172 30.7121 28.8172 30.5111 28.6332C30.1151 28.6332 29.9141 28.4492 29.5111 28.2652C29.3101 28.0812 29.1081 27.8972 28.9071 27.5282C28.7051 27.1602 28.7051 26.7912 28.7051 26.4232H30.3171V26.9762C30.3171 27.1602 30.5111 27.1602 30.5111 27.3442C30.7121 27.3442 30.7121 27.5282 30.9141 27.5282H32.1231C32.3241 27.5282 32.3241 27.3442 32.5261 27.3442C32.9211 27.3442 32.9211 27.1602 32.9211 26.9762ZM36.7411 22.1862V29.0022H35.1371V22.1862H36.7411ZM39.5541 24.9492V26.0552H36.3381V24.9492H39.5541ZM39.7561 22.1862V23.2912H36.1371V22.1862H39.7561ZM44.9791 27.7122V28.8172H41.1581V27.7122H44.9791ZM41.7631 22.1862V29.0022H40.1591V22.1862H41.7631ZM44.3741 24.7652V25.8712H41.1581V24.7652H44.3741ZM44.9791 22.1862V23.2912H41.1581V22.1862H44.9791ZM45.3741 22.1862H48.1871C48.5901 22.1862 49.1941 22.1862 49.5971 22.3702C49.9931 22.5542 50.1941 22.7392 50.5971 23.1072C50.7991 23.4752 51.0001 23.8442 51.0001 24.2122C51.0001 24.5812 51.0001 24.9492 50.7991 25.1332C50.5971 25.3182 50.3961 25.6862 50.1941 25.6862C49.9931 25.8712 49.7991 26.0552 49.3961 26.0552L48.7911 26.4232H46.5831V25.3182H48.3881C48.5901 25.3182 48.7911 25.3182 48.9931 25.1332C49.1941 25.1332 49.1941 24.9492 49.3961 24.7652C49.3961 24.5812 49.5971 24.3962 49.5971 24.2122C49.5971 24.0282 49.5971 23.8442 49.3961 23.6592C49.3961 23.4752 49.1941 23.4752 48.9931 23.2912C48.7911 23.1072 48.5901 23.1072 48.3881 23.1072H47.1871V28.6332H45.5751L45.3741 22.1862ZM49.3961 28.8172L47.7841 25.8712H49.1941L50.7991 28.8172H49.3961Z" fill="#1F72CD"/>
<path d="M25.0172 16.8662L26.4271 11.0022H27.2361L27.4391 11.9482L25.8271 18.0022H25.0172V16.8662ZM24.4101 11.0022L25.6241 16.8662V18.0022H24.6121L23.0001 11.0022H24.4101ZM28.6541 16.8662L29.8611 11.0022H31.2701L29.6581 18.0022H28.6541V16.8662ZM27.6411 11.0022L29.0511 16.8662V18.0022H28.2491L26.6292 11.9482L26.8311 11.0022H27.6411ZM33.2951 11.0022V18.0022H31.8781V11.0022H33.2951ZM34.3001 11.0022H36.9241C37.3291 11.0022 37.9371 11.0022 38.3421 11.1912C38.7391 11.3802 38.9411 11.5702 39.3461 11.9482C39.5491 12.3262 39.7511 12.7052 39.7511 13.0832C39.7511 13.4612 39.7511 13.6512 39.5491 14.0292C39.3461 14.2182 39.1441 14.5962 38.9411 14.5962C38.7391 14.7862 38.3421 14.9752 38.1391 14.9752L37.7341 15.1642H35.5151V14.2182H37.3291C37.5321 14.2182 37.7341 14.2182 37.9371 14.0292C38.1391 14.0292 38.1391 13.8402 38.3421 13.6512C38.3421 13.4612 38.5361 13.2722 38.5361 13.0832C38.5361 12.8942 38.5361 12.7052 38.3421 12.5152C38.3421 12.3262 38.1391 12.1372 37.9371 12.1372C37.7341 11.9482 37.5321 11.9482 37.3291 11.9482H36.1141V17.6232H34.7051L34.3001 11.0022ZM38.3421 18.0022L36.7221 14.9752H38.1391L39.7511 18.0022H38.3421ZM45.0001 16.8662V18.0022H41.1611V16.8662H45.0001ZM41.7681 11.0022V18.0022H40.3591V11.0022H41.7681ZM44.5951 13.8402V14.9752H41.3631V13.8402H44.5951ZM45.0001 11.0022V12.1372H41.1611V11.0022H45.0001Z" fill="#2B2B2B"/>
<path d="M26.0001 9.0882V8.3452C26.0001 6.4882 24.5341 5.0022 22.4481 5.0022H10.5521C8.45812 5.0022 7.00012 6.4882 7.00012 8.3452V18.0022" stroke="#2B2B2B" stroke-width="2.89" stroke-linecap="round"/>
<path d="M13.8861 15.5322H18.7761C18.9991 15.5322 18.9991 15.5322 18.9991 15.3282L19.2221 15.1242C19.2221 14.9202 18.9991 14.7162 18.7761 14.7162H15.2241C14.5551 14.7162 14.1091 14.5122 13.6631 14.1042C12.7791 13.2882 12.7791 12.0632 13.6631 11.2472C14.1091 10.8392 14.5551 10.6352 15.2241 10.6352H16.1081V9.0022H17.8921V10.6352H20.1141V12.2672H15.2241C15.0011 12.2672 15.0011 12.2672 15.0011 12.4712C15.0011 12.4712 14.7781 12.6752 15.0011 12.6752V13.0832L15.2241 13.2882H18.7761C19.4451 13.2882 19.8911 13.4922 20.3371 13.9002C21.2211 14.7162 21.2211 15.9412 20.3371 16.7572C19.8911 17.1652 19.4451 17.3692 18.7761 17.3692H17.8921V19.0022H16.1081V17.1652H13.8861V15.5322Z" fill="#2B2B2B"/>
</svg>
