<svg width="24" height="24" viewBox="0 0 24 24" fill="none" xmlns="http://www.w3.org/2000/svg">
<path d="M18.5135 16.1151C21.7815 11.5251 20.7065 5.1571 16.1175 1.8901C11.5265 -1.3759 5.15748 -0.302896 1.89048 4.2871C-1.37652 8.8771 -0.302522 15.2481 4.28848 18.5131C7.82948 21.0341 12.5765 21.0341 16.1175 18.5131L20.9115 23.3091C21.6245 23.9181 22.6975 23.8351 23.3085 23.1221C23.8535 22.4841 23.8535 21.5471 23.3085 20.9101L18.5135 16.1151ZM3.40048 10.2161C3.40348 6.46011 6.45048 3.4181 10.2065 3.4211C13.9625 3.4241 17.0055 6.47111 17.0015 10.2271C16.9995 12.0271 16.2845 13.7541 15.0135 15.0271C12.3595 17.6851 8.05348 17.6871 5.39548 15.0331C4.11648 13.7561 3.39948 12.0241 3.40048 10.2161Z" fill="white"/>
</svg>
