<svg width="60" height="38" viewBox="0 0 60 38" fill="none" xmlns="http://www.w3.org/2000/svg">
<path d="M6.59308 0.00219727H53.4071C57.1431 0.00219727 60.0001 2.7582 60.0001 6.1062V31.8982C60.0001 35.2452 57.1431 38.0022 53.4071 38.0022H6.59308C2.85708 38.0022 9.15527e-05 35.2452 9.15527e-05 31.8982V6.3022C9.15527e-05 2.9552 3.07708 0.199197 6.59308 0.00219727Z" fill="white"/>
<path d="M26.0001 38.0022L60.0001 27.0022V32.1902C60.0001 35.3042 57.6001 37.7952 54.6001 38.0022H26.0001Z" fill="#FD6020"/>
<path fill-rule="evenodd" clip-rule="evenodd" d="M51.2891 12.3852C53.0471 12.3852 54.2191 13.3432 54.2191 14.8742C54.4141 16.0232 53.6331 17.1722 52.4611 17.3642L55.0001 20.8112H53.0471L50.8981 17.3642H50.7031V20.8112H49.1411V12.3852H51.2891ZM50.7031 16.2152H51.0941C52.0701 16.2152 52.6561 15.6402 52.6561 14.8742C52.6561 14.1082 52.2661 13.5342 51.0941 13.5342H50.7031V16.2152ZM43.6721 12.3852H47.9691V13.7252H45.0391V15.6402H47.7731V17.1722H45.0391V19.4702H47.9691V20.8112H43.6721V12.3852ZM41.3291 12.3852H42.8911L39.5701 21.0022H38.7891L35.4691 12.1942H37.0321L39.1801 17.9392L41.3291 12.3852ZM20.6251 16.2152C20.6251 14.1082 22.5781 12.3852 24.7261 12.3852C25.5081 12.3852 26.0941 12.5772 26.6801 12.9592V14.8742C26.2891 14.3002 25.5081 13.9172 24.7261 13.9172C24.3631 13.9142 24.0031 13.9882 23.6711 14.1362C23.3391 14.2842 23.0421 14.5022 22.8021 14.7742C22.5611 15.0462 22.3821 15.3672 22.2761 15.7152C22.1701 16.0622 22.1401 16.4292 22.1881 16.7892V16.9812C22.1881 18.3212 23.5551 19.4702 24.9221 19.4702C25.5081 19.4702 26.2891 19.0882 26.6801 18.5132V20.4282C26.0941 20.8112 25.3131 21.0022 24.7261 21.0022C22.3831 20.8112 20.6251 18.8962 20.6251 16.5982V16.2152ZM19.8441 17.9392C19.8441 19.2792 18.6721 20.4282 17.1091 20.4282C16.5591 20.4352 16.0161 20.2982 15.5361 20.0292C15.0561 19.7602 14.6561 19.3692 14.3751 18.8962L15.3521 17.9392C15.5471 18.7042 16.1331 19.0882 16.9141 19.0882C17.6961 19.0882 18.0861 18.5132 18.0861 17.9392C18.0861 17.7472 18.0861 17.3642 17.6961 17.1722C17.3051 16.7892 16.9141 16.7892 16.5241 16.5982C14.9611 16.0232 14.5701 15.4492 14.5701 14.3002C14.7661 12.9592 15.7421 12.0022 17.1091 12.0022C18.0861 12.0022 18.8671 12.3852 19.4531 12.9592L18.6721 14.1082C18.4771 13.9172 18.0861 13.5342 17.5001 13.5342C17.1091 13.5342 16.5241 13.9172 16.5241 14.4922C16.5241 14.8742 16.7191 15.0662 17.6961 15.4492C19.6491 16.4062 20.0391 16.9812 19.8441 17.9392ZM12.4221 12.3852H13.9851V20.8112H12.4221V12.3852ZM5.1951 12.3852H7.93008C10.2741 12.5772 12.0321 14.3002 11.8361 16.5982C11.8361 17.7472 11.2501 18.8962 10.2741 19.8532C9.49208 20.6192 8.51609 20.8112 7.34409 20.8112H5.00009L5.1951 12.3852ZM7.1481 19.2792C7.9301 19.2792 8.71109 19.0882 9.29709 18.7042C9.88309 18.1302 10.0781 17.3642 10.0781 16.5982C10.0781 15.8322 9.88309 15.0662 9.29709 14.4922C8.71109 13.9172 7.9301 13.7262 7.1481 13.9172H6.75809V19.4702H7.1481V19.2792Z" fill="#2B2B2B"/>
<path fill-rule="evenodd" clip-rule="evenodd" d="M32.0871 12.0022C29.8571 12.0022 28.0001 13.9592 28.0001 16.5022C28.0001 18.8502 29.6711 20.8062 31.9001 21.0022C34.1301 21.0022 35.9871 19.0462 35.9871 16.6982C36.1731 14.1542 34.3161 12.0022 32.0871 12.0022Z" fill="#FD6020"/>
</svg>
