<svg width="50" height="17" viewBox="0 0 50 17" fill="none" xmlns="http://www.w3.org/2000/svg">
<path d="M41.2 5.9902L43.25 8.5162L45.22 5.9902H49.43L45.31 11.1672L49.48 16.3932H45.11L43.08 13.8432L41.07 16.3932H36.84L40.98 11.1912L36.84 5.9912L41.2 5.9902ZM36.84 5.9912V9.5042H32.16V12.7302H36.84V16.3932H28.72V0.00219727H36.84V3.6522H32.16V5.9912H36.84Z" fill="#FF5900"/>
<path d="M25.3 0.00219727V6.7042C24.9501 6.2775 24.5076 5.9362 24.006 5.7062C23.5345 5.4925 23.0155 5.40529 22.5 5.45319C21.502 5.42119 20.523 5.79019 19.706 6.5062C18.889 7.2212 18.276 8.2462 17.96 9.4292C17.28 6.9292 15.53 5.4032 12.96 5.4032C12.06 5.3332 11.161 5.5532 10.35 6.0412C9.537 6.5292 8.838 7.2692 8.32 8.1912V5.9782H3.89V3.6532H8.64V0.00219727H0V16.3812H3.89V9.47919H7.76C7.6426 10.0133 7.5822 10.5584 7.58 11.1052C7.58 14.4802 9.91 16.9812 12.89 16.9812C13.933 17.0882 14.976 16.7842 15.873 16.1112C16.769 15.4382 17.475 14.4312 17.89 13.2312H14.58C14.398 13.5712 14.143 13.8392 13.844 14.0052C13.544 14.1712 13.214 14.2272 12.89 14.1682C12.404 14.1822 11.932 13.9642 11.571 13.5572C11.211 13.1502 10.988 12.5852 10.95 11.9802H17.73C17.906 13.3942 18.487 14.6802 19.364 15.6002C20.241 16.5202 21.355 17.0102 22.5 16.9802C23.041 16.9905 23.5738 16.8465 24.036 16.5652C24.516 16.2782 24.934 15.8552 25.26 15.3312V16.3812H28.73V0.00219727H25.3ZM11.05 9.5422C11.156 9.0382 11.396 8.5942 11.73 8.2822C12.065 7.9722 12.474 7.8122 12.89 7.8292C13.313 7.7812 13.735 7.92919 14.076 8.24519C14.417 8.56119 14.653 9.0222 14.74 9.5422H11.05ZM23.22 13.8922C22.665 13.8272 22.15 13.5052 21.774 12.9892C21.399 12.4742 21.191 11.8022 21.191 11.1052C21.191 10.4082 21.399 9.7352 21.774 9.2202C22.15 8.7042 22.665 8.3822 23.22 8.3162C24.64 8.3162 25.22 9.7292 25.22 11.1922C25.2423 11.5353 25.2071 11.8797 25.116 12.2112C25.026 12.5372 24.882 12.8372 24.694 13.0912C24.5166 13.3356 24.2879 13.5383 24.024 13.6852C23.7779 13.8214 23.5013 13.892 23.22 13.8922Z" fill="#2A007C"/>
</svg>
