<svg width="31" height="31" viewBox="0 0 31 31" fill="none" xmlns="http://www.w3.org/2000/svg">
<path d="M15.5036 30.9999C12.4378 31.0009 9.44072 30.0919 6.89132 28.3899C4.34192 26.6869 2.35472 24.2659 1.18112 21.4339C0.00762296 18.6019 -0.299677 15.4849 0.298223 12.4779C0.896123 9.47093 2.37232 6.70894 4.54012 4.54194C6.70802 2.37394 9.47003 0.89794 12.4769 0.29994C15.4838 -0.29806 18.6004 0.00893581 21.4326 1.18294C24.2649 2.35594 26.6855 4.34294 28.3882 6.89294C30.091 9.44194 30.9994 12.4389 30.9986 15.5049C30.9946 19.6129 29.3608 23.5519 26.4558 26.4569C23.5508 29.3619 19.6119 30.9959 15.5036 30.9999Z" fill="black"/>
<path d="M20.6015 8.0022H23.055L17.6949 14.3562L24.0006 23.0022H19.0626L15.1955 17.7582L10.7707 23.0022H8.31581L14.0489 16.2062L8.00061 8.0022H13.0625L16.558 12.7952L20.6001 8.0022H20.6015ZM19.7405 21.4792H21.0999L12.3245 9.44519H10.8657L19.7405 21.4792Z" fill="white"/>
</svg>
