<svg width="33" height="20" viewBox="0 0 33 20" fill="none" xmlns="http://www.w3.org/2000/svg">
<mask id="mask0_2_60" style="mask-type:luminance" maskUnits="userSpaceOnUse" x="0" y="0" width="33" height="21">
<path d="M32.623 0.00219727H0V20.0022H32.623V0.00219727Z" fill="white"/>
</mask>
<g mask="url(#mask0_2_60)">
<path d="M3.151 4.49428C3.151 4.49428 24.014 3.82428 24.014 5.86728H11.936L13.956 11.7323C13.956 11.7323 22.455 7.56028 26.254 8.69828C26.254 8.69828 20.951 9.23128 11.595 14.1383L0 20.0023L3.151 4.49428Z" fill="#004B87"/>
<path d="M5.392 0.00219727H32.623L28.407 20.0022H2.35001L26.035 10.5392C26.68 10.392 27.267 10.0549 27.719 9.5712C28.166 9.0902 28.452 8.4892 28.539 7.8472C28.697 7.4947 28.745 7.1027 28.676 6.7226C28.607 6.34249 28.425 5.99199 28.154 5.71719C28.154 5.71719 27.715 5.0692 24.86 5.3982C24.86 5.3982 25.058 4.3342 20.94 3.5252C16.822 2.7162 5.392 0.00219727 5.392 0.00219727Z" fill="#004B87"/>
<path d="M21.478 7.03929C22.581 7.03469 23.658 6.70529 24.575 6.09229H27.133C27.133 6.09229 27.946 6.15629 27.561 7.30529C27.35 7.97649 27.067 8.62269 26.716 9.23229C26.716 9.23229 27.331 7.30529 26.913 7.10329C26.101 6.69929 21.478 7.03929 21.478 7.03929Z" fill="#004B87"/>
</g>
</svg>
