<svg width="30" height="22" viewBox="0 0 30 22" fill="none" xmlns="http://www.w3.org/2000/svg">
<path d="M22.9773 16.7178L22.4866 19.531C22.4439 19.7708 22.3525 19.9994 22.2181 20.2026C22.0837 20.4058 21.9091 20.5793 21.7051 20.7125C21.5051 20.8444 21.2799 20.9336 21.0438 20.9745C20.8077 21.0154 20.5657 21.0071 20.3329 20.9501C16.1403 19.9404 12.3066 17.7959 9.25212 14.7517C6.20676 11.6976 4.06117 7.86385 3.05062 3.6709C2.99308 3.43819 2.98449 3.19607 3.02538 2.95987C3.06627 2.72366 3.15576 2.49852 3.28818 2.29869C3.42136 2.0947 3.5949 1.92013 3.7981 1.78574C4.0013 1.65134 4.22987 1.55997 4.46972 1.51726L7.2829 1.02651C7.72576 0.948909 8.18154 1.04313 8.55733 1.28998C8.93311 1.53682 9.2006 1.9177 9.30526 2.35496C9.54133 3.284 9.85501 4.19158 10.243 5.06812C10.432 5.47637 10.4587 5.94123 10.3177 6.36844C10.1766 6.79565 9.87838 7.15323 9.48343 7.36867L9.29588 7.4687C9.16005 7.54558 9.0409 7.64875 8.94537 7.77219C8.84984 7.89562 8.77986 8.03685 8.7395 8.18762C8.70012 8.3364 8.69257 8.4918 8.71735 8.64369C8.74212 8.79558 8.79867 8.94054 8.88328 9.06908C10.4473 11.4893 12.5053 13.5515 14.9222 15.1205C15.0511 15.2044 15.1961 15.2606 15.3478 15.2853C15.4996 15.3101 15.6549 15.3029 15.8037 15.2643C15.9578 15.224 16.1021 15.1528 16.2279 15.055C16.3536 14.9572 16.4581 14.8349 16.5351 14.6954L16.6352 14.5079C16.8501 14.1108 17.2088 13.811 17.6376 13.6698C18.0665 13.5286 18.5332 13.5567 18.942 13.7483C19.8185 14.1363 20.7261 14.45 21.6551 14.6861C22.0931 14.7921 22.474 15.0616 22.7199 15.4393C22.9657 15.817 23.0578 16.2744 22.9773 16.7178Z" fill="white"/>
<path d="M14.3311 1.50495C14.3311 1.42205 14.364 1.34255 14.4226 1.28393C14.4812 1.22531 14.5607 1.19238 14.6436 1.19238C16.8097 1.231 18.8717 2.12824 20.3763 3.68682C21.881 5.2454 22.7051 7.33773 22.6674 9.50377C22.6674 9.58667 22.6345 9.66617 22.5759 9.72479C22.5173 9.78341 22.4378 9.81634 22.3549 9.81634C22.272 9.81634 22.1925 9.78341 22.1338 9.72479C22.0752 9.66617 22.0423 9.58667 22.0423 9.50377C22.0783 7.50353 21.3184 5.57087 19.9299 4.1307C18.5413 2.69054 16.6376 1.86075 14.6374 1.82378C14.5963 1.82297 14.5558 1.81408 14.5182 1.79761C14.4806 1.78115 14.4466 1.75744 14.4182 1.72783C14.3897 1.69822 14.3674 1.6633 14.3524 1.62506C14.3375 1.58682 14.3302 1.546 14.3311 1.50495Z" fill="white"/>
<path d="M14.253 6.52448C14.253 6.44158 14.286 6.36208 14.3446 6.30346C14.4032 6.24484 14.4827 6.21191 14.5656 6.21191C15.3985 6.22752 16.1912 6.57301 16.7696 7.17254C17.3481 7.77206 17.6649 8.57661 17.6507 9.40956C17.6507 9.49246 17.6178 9.57196 17.5592 9.63058C17.5006 9.6892 17.4211 9.72213 17.3381 9.72213C17.2552 9.72213 17.1757 9.6892 17.1171 9.63058C17.0585 9.57196 17.0256 9.49246 17.0256 9.40956C17.0382 8.74347 16.7864 8.09951 16.3254 7.61858C15.8644 7.13765 15.2316 6.8589 14.5656 6.84331C14.524 6.84332 14.4829 6.83503 14.4445 6.81893C14.4062 6.80284 14.3714 6.77925 14.3423 6.74956C14.3132 6.71987 14.2903 6.68467 14.275 6.64602C14.2597 6.60737 14.2522 6.56605 14.253 6.52448Z" fill="white"/>
<path d="M14.2875 4.01472C14.2875 3.93182 14.3204 3.85232 14.3791 3.7937C14.4377 3.73508 14.5172 3.70215 14.6001 3.70215C16.1001 3.72845 17.5283 4.34945 18.5705 5.42859C19.6127 6.50774 20.1836 7.95664 20.1577 9.45667C20.1577 9.53957 20.1248 9.61907 20.0661 9.67769C20.0075 9.73631 19.928 9.76924 19.8451 9.76924C19.7622 9.76924 19.6827 9.73631 19.6241 9.67769C19.5655 9.61907 19.5325 9.53957 19.5325 9.45667C19.5543 8.12405 19.0465 6.83723 18.1206 5.87854C17.1948 4.91985 15.9264 4.36759 14.5938 4.34293C14.552 4.34214 14.5107 4.33295 14.4724 4.31591C14.4342 4.29886 14.3998 4.2743 14.3712 4.24368C14.3426 4.21307 14.3205 4.17703 14.3061 4.1377C14.2917 4.09837 14.2854 4.05655 14.2875 4.01472Z" fill="white"/>
</svg>
