<svg width="31" height="31" viewBox="0 0 31 31" fill="none" xmlns="http://www.w3.org/2000/svg">
<path d="M15.5006 31.0022C12.4347 31.0022 9.4376 30.0932 6.8886 28.3902C4.3395 26.6862 2.3531 24.2652 1.1806 21.4322C-0.292596 17.8772 -0.390497 13.9002 0.906203 10.2772C2.2028 6.65321 4.8011 3.64222 8.1956 1.82822C11.59 0.0152224 15.5377 -0.470777 19.2705 0.466223C23.0034 1.40222 26.2542 3.69422 28.3906 6.89522C30.0932 9.44422 31.0015 12.4412 31.0006 15.5072C30.9961 19.6162 29.3615 23.5552 26.4555 26.4602C23.5495 29.3652 19.6096 30.9992 15.5006 31.0022Z" fill="#3B579D"/>
<path fill-rule="evenodd" clip-rule="evenodd" d="M12.9796 15.5742V24.7642C12.9796 24.8272 13.0046 24.8872 13.0496 24.9322C13.0956 24.9772 13.1576 25.0022 13.2226 25.0022H16.7046C16.7681 25.0022 16.829 24.9772 16.8744 24.9322C16.9198 24.8882 16.946 24.8272 16.9476 24.7642V15.4302H19.4696C19.5296 15.4302 19.5886 15.4082 19.6336 15.3682C19.6784 15.3282 19.7066 15.2732 19.7126 15.2142L19.9556 12.4042C19.9588 12.3712 19.9548 12.3372 19.9439 12.3062C19.933 12.2742 19.9156 12.2452 19.8926 12.2212C19.8695 12.1962 19.8416 12.1772 19.8107 12.1632C19.7797 12.1502 19.7463 12.1432 19.7126 12.1432H16.9476V10.1422C16.9468 10.0302 16.9687 9.91919 17.012 9.81619C17.0553 9.71219 17.1191 9.6192 17.1996 9.5412C17.3635 9.3812 17.5837 9.2932 17.8126 9.2942H19.7576C19.8219 9.2932 19.8833 9.26719 19.9286 9.22119C19.974 9.17619 19.9998 9.1142 20.0006 9.0502V6.2402C20.0006 6.2092 19.9943 6.1782 19.9821 6.1492C19.9699 6.1202 19.952 6.0942 19.9296 6.0722C19.8836 6.0272 19.8219 6.0022 19.7576 6.0022H16.4726C15.5476 6.0022 14.6606 6.3622 14.0066 7.0042C13.6838 7.3192 13.4272 7.6952 13.2517 8.1102C13.0762 8.5252 12.9854 8.9712 12.9846 9.4222V12.1322H11.2506C11.1857 12.1322 11.1233 12.1572 11.0766 12.2022C11.0537 12.2242 11.0352 12.2502 11.0224 12.2792C11.0095 12.3072 11.0024 12.3382 11.0016 12.3702V15.1812C11.0024 15.2132 11.0095 15.2442 11.0224 15.2722C11.0352 15.3012 11.0537 15.3272 11.0766 15.3492C11.1233 15.3942 11.1857 15.4192 11.2506 15.4192H12.9856V15.5742H12.9796Z" fill="#DCDCDC"/>
</svg>
