<svg width="27" height="32" viewBox="0 0 27 32" fill="none" xmlns="http://www.w3.org/2000/svg">
<path d="M16.854 2.0022L1 5.7042V14.3422C1 19.8962 1.61 22.3642 2.83 24.8322C3.805 26.8062 10.561 29.7682 13.805 31.0022L18.683 28.5342C20.486 27.9452 22.106 26.8982 23.383 25.4962C24.667 24.0862 25.568 22.3705 26 20.5132V3.2362L16.854 2.0022Z" fill="#301506"/>
<path d="M26.981 11.4763V18.7723C27.061 20.665 26.602 22.5416 25.656 24.1833C24.708 25.8283 23.314 27.1713 21.635 28.0573C19.137 29.5113 16.427 30.7543 13.742 31.9603C13.6769 31.9883 13.6069 32.0023 13.536 32.0023C13.4652 32.0023 13.3951 31.9883 13.33 31.9603C10.248 30.6973 7.26671 29.2013 4.41201 27.4853C3.23861 26.7443 2.24491 25.7513 1.50301 24.5783C0.762408 23.4073 0.292608 22.0866 0.128008 20.7113C0.0367077 20.1067 -0.00509227 19.4957 0.00300773 18.8843V3.27228C-0.00919227 3.16938 0.0138077 3.06549 0.0683077 2.97739C0.122808 2.88929 0.205511 2.82229 0.303011 2.78729C2.39841 1.75929 4.62631 1.02729 6.92301 0.612288C9.59701 0.105288 12.321 -0.0877107 15.041 0.0402893C19.016 0.123289 22.931 1.03329 26.531 2.71229C26.681 2.76329 26.809 2.86429 26.893 2.99829C26.98 3.13019 27.016 3.28969 26.993 3.44629C26.968 6.14329 26.981 8.80329 26.981 11.4763ZM25.882 3.24729L22.609 3.06029C19.311 2.86279 16.001 3.10969 12.768 3.79429C8.50331 4.66179 4.54601 6.64798 1.30201 9.54928C1.23181 9.60558 1.17631 9.67789 1.14001 9.76029C1.11611 9.84999 1.11611 9.94448 1.14001 10.0343V18.6483C1.14001 19.3853 1.20301 20.1213 1.32701 20.8483C1.50361 22.0468 1.94461 23.1913 2.61801 24.1983C3.29261 25.2073 4.18271 26.0543 5.22401 26.6773C7.83741 28.2173 10.5538 29.5753 13.354 30.7423C13.4161 30.7543 13.4799 30.7543 13.542 30.7423H13.742C16.115 29.5863 18.5 28.4423 20.861 27.2623C22.004 26.7043 23.023 25.9223 23.858 24.9623C25.23 23.2943 25.961 21.1914 25.919 19.0323V3.64628L25.882 3.24729Z" fill="#FAB80A"/>
<path d="M13.175 21.8092V27.0022H11.002V11.2282C10.9923 11.1175 11.0149 11.0064 11.067 10.9082C11.1153 10.8149 11.193 10.74 11.288 10.6952C11.8602 10.3533 12.4963 10.132 13.1572 10.045C13.8181 9.958 14.4898 10.007 15.131 10.1892C15.6985 10.3685 16.208 10.6957 16.607 11.1372C17.022 11.5922 17.329 12.1592 17.499 12.7862C17.872 13.9062 18.039 15.1012 17.992 16.2972C17.947 17.4835 17.687 18.6518 17.225 19.7452C16.888 20.5442 16.322 21.1892 15.619 21.5732C14.916 21.9582 14.119 22.0602 13.359 21.8612L13.175 21.8092ZM13.107 12.1362V19.3292C13.107 19.4852 13.107 19.6282 13.278 19.6792C13.646 19.8422 14.054 19.8422 14.422 19.6792C14.77 19.5102 15.054 19.2072 15.223 18.8232C15.328 18.5982 15.405 18.3582 15.452 18.1092C15.716 16.6662 15.72 15.1782 15.463 13.7332C15.463 13.6032 15.406 13.4612 15.372 13.3182C15.3374 13.0404 15.2396 12.7742 15.086 12.5402C14.941 12.3178 14.7413 12.1363 14.506 12.0132C14.28 11.8959 14.0254 11.8451 13.7717 11.8669C13.518 11.8887 13.2757 11.9821 13.073 12.1362H13.107ZM8.97699 10.0552V20.6072C9.00699 20.7152 9.00699 20.8292 8.97699 20.9372C8.92669 21.0398 8.84419 21.123 8.74199 21.1742C7.43409 21.9414 5.8848 22.1864 4.404 21.8602C3.7609 21.7315 3.1812 21.3867 2.761 20.8832C2.3246 20.3617 2.06459 19.7156 2.01799 19.0372C1.99359 18.6643 1.99359 18.2901 2.01799 17.9172V10.0022H4.416V17.9162C4.392 18.1402 4.392 18.3662 4.416 18.5892C4.444 18.7772 4.509 18.9562 4.607 19.1152C4.705 19.2742 4.835 19.4082 4.987 19.5082C5.1357 19.6086 5.3056 19.6732 5.4834 19.697C5.6613 19.7208 5.8422 19.703 6.012 19.6452C6.0852 19.6573 6.1598 19.6573 6.233 19.6452C6.2899 19.6584 6.3491 19.6584 6.406 19.6452C6.4638 19.6169 6.5144 19.5759 6.554 19.5252C6.589 19.4735 6.61449 19.4159 6.62899 19.3552C6.6411 19.2894 6.6411 19.222 6.62899 19.1562V10.0422L8.97699 10.0552ZM24.567 12.8472C24.115 12.5653 23.642 12.3179 23.152 12.1072C22.792 12.0035 22.411 12.0035 22.051 12.1072C21.845 12.1444 21.655 12.2438 21.507 12.3922C21.361 12.5422 21.253 12.7302 21.193 12.9382C21.132 13.1506 21.132 13.3758 21.193 13.5882C21.256 13.7962 21.374 13.9812 21.531 14.1212C21.934 14.4742 22.363 14.7912 22.813 15.0692C23.413 15.4132 23.939 15.8727 24.361 16.4212C24.724 16.9643 24.94 17.5919 24.989 18.2432C25.037 18.8944 24.917 19.5472 24.639 20.1382C24.414 20.6876 24.036 21.1605 23.549 21.5002C23.077 21.8277 22.516 22.0013 21.942 21.9972C21.007 22.0374 20.08 21.7975 19.282 21.3082L19.173 21.2052C19.161 21.158 19.161 21.1084 19.173 21.0612V18.9302L19.415 19.1252C19.996 19.6252 20.715 19.9032 21.459 19.9182C21.705 19.9442 21.954 19.8882 22.17 19.7582C22.386 19.6282 22.56 19.4302 22.668 19.1902C22.776 18.9363 22.814 18.6578 22.777 18.3842C22.727 18.116 22.601 17.8677 22.414 17.6692C22.043 17.2985 21.639 16.9637 21.205 16.6692C20.512 16.2654 19.923 15.7039 19.487 15.0302C19.213 14.5749 19.049 14.0616 19.009 13.5316C18.969 13.0016 19.053 12.4696 19.256 11.9782C19.459 11.4902 19.772 11.0632 20.167 10.7382C20.555 10.4163 21.022 10.2025 21.519 10.1182C22.009 9.99019 22.518 9.9682 23.016 10.0522C23.515 10.1372 23.992 10.3272 24.422 10.6122C24.506 10.6592 24.578 10.7322 24.627 10.8192C24.651 10.9086 24.651 11.0028 24.627 11.0922C24.555 11.6902 24.567 12.2882 24.567 12.8472Z" fill="#FAB80A"/>
</svg>
