<svg width="30" height="22" viewBox="0 0 30 22" fill="none" xmlns="http://www.w3.org/2000/svg">
<path d="M22.9773 16.7178L22.4866 19.531C22.4439 19.7708 22.3525 19.9994 22.2181 20.2026C22.0837 20.4058 21.9091 20.5793 21.7051 20.7125C21.5051 20.8444 21.2799 20.9336 21.0438 20.9745C20.8077 21.0154 20.5657 21.0071 20.3329 20.9501C16.1403 19.9404 12.3066 17.7959 9.25212 14.7517C6.20676 11.6976 4.06117 7.86385 3.05062 3.6709C2.99308 3.43819 2.98449 3.19607 3.02538 2.95987C3.06627 2.72366 3.15576 2.49852 3.28818 2.29869C3.42136 2.0947 3.5949 1.92013 3.7981 1.78574C4.0013 1.65134 4.22987 1.55997 4.46972 1.51726L7.2829 1.02651C7.72576 0.948908 8.18154 1.04313 8.55733 1.28998C8.93311 1.53682 9.2006 1.9177 9.30526 2.35496C9.54133 3.284 9.85501 4.19158 10.243 5.06812C10.432 5.47637 10.4587 5.94123 10.3177 6.36844C10.1766 6.79565 9.87838 7.15323 9.48343 7.36867L9.29588 7.4687C9.16005 7.54558 9.0409 7.64875 8.94537 7.77219C8.84984 7.89562 8.77986 8.03685 8.7395 8.18762C8.70012 8.3364 8.69257 8.4918 8.71735 8.64369C8.74212 8.79558 8.79867 8.94054 8.88328 9.06908C10.4473 11.4893 12.5053 13.5515 14.9222 15.1205C15.0511 15.2044 15.1961 15.2606 15.3478 15.2853C15.4996 15.3101 15.6549 15.3029 15.8037 15.2643C15.9578 15.224 16.1021 15.1528 16.2279 15.055C16.3536 14.9572 16.4581 14.8349 16.5351 14.6954L16.6352 14.5079C16.8501 14.1108 17.2088 13.811 17.6376 13.6698C18.0665 13.5286 18.5332 13.5567 18.942 13.7483C19.8185 14.1363 20.7261 14.45 21.6551 14.6861C22.0931 14.7921 22.474 15.0616 22.7199 15.4393C22.9657 15.817 23.0578 16.2744 22.9773 16.7178Z" fill="#094380"/>
<path d="M14.3315 1.50471C14.3315 1.42181 14.3644 1.34231 14.423 1.28369C14.4816 1.22507 14.5611 1.19214 14.644 1.19214C16.8101 1.23076 18.8721 2.128 20.3767 3.68658C21.8814 5.24516 22.7055 7.33749 22.6678 9.50353C22.6678 9.58643 22.6349 9.66593 22.5763 9.72455C22.5177 9.78317 22.4382 9.8161 22.3553 9.8161C22.2724 9.8161 22.1929 9.78317 22.1342 9.72455C22.0756 9.66593 22.0427 9.58643 22.0427 9.50353C22.0787 7.50329 21.3188 5.57063 19.9303 4.13046C18.5417 2.6903 16.638 1.86051 14.6378 1.82354C14.5967 1.82273 14.5562 1.81384 14.5186 1.79737C14.481 1.78091 14.447 1.7572 14.4186 1.72759C14.3901 1.69798 14.3678 1.66306 14.3528 1.62482C14.3379 1.58658 14.3306 1.54576 14.3315 1.50471Z" fill="#094380"/>
<path d="M14.2533 6.52473C14.2533 6.44183 14.2863 6.36233 14.3449 6.30371C14.4035 6.24509 14.483 6.21216 14.5659 6.21216C15.3988 6.22777 16.1915 6.57326 16.7699 7.17279C17.3484 7.77231 17.6652 8.57686 17.651 9.40981C17.651 9.49271 17.6181 9.57221 17.5595 9.63083C17.5009 9.68945 17.4214 9.72238 17.3384 9.72238C17.2555 9.72238 17.176 9.68945 17.1174 9.63083C17.0588 9.57221 17.0259 9.49271 17.0259 9.40981C17.0385 8.74372 16.7867 8.09976 16.3257 7.61883C15.8647 7.1379 15.2319 6.85915 14.5659 6.84356C14.5243 6.84357 14.4832 6.83528 14.4448 6.81918C14.4065 6.80309 14.3717 6.7795 14.3426 6.74981C14.3135 6.72012 14.2906 6.68492 14.2753 6.64627C14.26 6.60762 14.2525 6.5663 14.2533 6.52473Z" fill="#094380"/>
<path d="M14.2877 4.01472C14.2877 3.93182 14.3206 3.85232 14.3793 3.7937C14.4379 3.73508 14.5174 3.70215 14.6003 3.70215C16.1003 3.72845 17.5285 4.34945 18.5707 5.42859C19.6129 6.50774 20.1838 7.95664 20.1579 9.45667C20.1579 9.53957 20.125 9.61907 20.0663 9.67769C20.0077 9.73631 19.9282 9.76924 19.8453 9.76924C19.7624 9.76924 19.6829 9.73631 19.6243 9.67769C19.5657 9.61907 19.5327 9.53957 19.5327 9.45667C19.5545 8.12405 19.0467 6.83723 18.1208 5.87854C17.195 4.91985 15.9266 4.36759 14.594 4.34293C14.5522 4.34214 14.5109 4.33295 14.4726 4.31591C14.4344 4.29886 14.4 4.2743 14.3714 4.24368C14.3428 4.21307 14.3207 4.17703 14.3063 4.1377C14.2919 4.09837 14.2856 4.05655 14.2877 4.01472Z" fill="#094380"/>
</svg>
