<svg width="60" height="38" viewBox="0 0 60 38" fill="none" xmlns="http://www.w3.org/2000/svg">
<path d="M6.54509 0.00219727H53.4551C57.1641 0.00219727 60.0001 2.7592 60.0001 6.1062V31.8982C60.0001 35.2452 57.1641 38.0022 53.4551 38.0022H6.54509C2.83609 38.0022 9.15527e-05 35.2452 9.15527e-05 31.8982V6.1062C9.15527e-05 2.9552 2.83609 0.199197 6.54509 0.00219727Z" fill="white"/>
<path fill-rule="evenodd" clip-rule="evenodd" d="M19.1521 24.581C19.5141 25.097 19.6951 25.785 19.5141 26.299V26.471C19.3331 27.847 17.8861 28.878 16.4381 28.706H15.7141C15.5331 28.706 15.3531 28.8781 15.3531 29.0501L14.9901 30.9401C14.9901 31.1121 14.8101 31.2831 14.6291 31.2831H13.1811C13.0001 31.2831 13.0001 31.283 13.0001 31.112L14.0861 24.409C14.0861 24.237 14.2671 24.066 14.4481 24.066H17.1621C17.7051 23.895 18.4291 24.066 19.1521 24.581ZM16.9811 25.7851C16.8001 25.4411 16.4381 25.441 15.8951 25.441H15.7141C15.7141 25.441 15.5331 25.441 15.5331 25.613L15.3531 27.331H15.7141C16.4381 27.331 17.1621 27.331 17.3431 26.471C17.5241 26.128 17.3441 25.9571 16.9811 25.7851ZM25.1241 26.471H25.3051L24.7621 30.7681C24.7621 30.9401 24.5811 31.112 24.4001 31.112H23.3141C23.1331 31.112 23.1331 31.1121 23.1331 30.9401V30.596C22.5901 31.112 22.0481 31.2831 21.3241 31.2831C20.7811 31.2831 20.0571 31.112 19.6951 30.596C19.4381 30.362 19.2521 30.0611 19.1561 29.7271C19.0601 29.3941 19.0591 29.04 19.1521 28.706C19.3331 27.331 20.6001 26.299 22.0481 26.299C22.5901 26.299 23.1331 26.471 23.4951 26.816L23.6761 26.9871V26.644C23.6761 26.471 23.6761 26.471 23.8571 26.471H25.1241ZM23.1331 28.0191C22.9521 27.8471 22.5901 27.6751 22.2291 27.6751C21.5051 27.6751 20.9621 28.1901 20.7811 28.8781C20.6001 29.2211 20.7811 29.566 20.9621 29.738C21.1431 29.909 21.5051 30.0801 21.8671 30.0801C22.5901 30.0801 23.1331 29.5661 23.3141 28.8781C23.3141 28.5341 23.3141 28.1901 23.1331 28.0191ZM30.5521 26.471H31.8191C32.0001 26.471 32.0001 26.644 32.0001 26.644V26.816L27.6571 32.8301C27.6571 33.0021 27.4761 33.0021 27.2951 33.0021H26.0291C25.8481 33.0021 25.8481 32.8301 25.8481 32.8301V32.6581L27.1141 30.7681L25.6671 26.816C25.6671 26.644 25.6671 26.644 25.8481 26.471H27.1141C27.2951 26.471 27.4761 26.644 27.4761 26.644L28.2001 29.0501L30.0101 26.471C30.1901 26.471 30.3711 26.299 30.5521 26.471Z" fill="#253B80"/>
<path fill-rule="evenodd" clip-rule="evenodd" d="M44.4991 24.2293C44.4991 24.0643 44.6671 24.0643 44.6671 24.0643H45.8341C46.0001 24.0643 46.0001 24.2293 46.0001 24.2293L45.0001 30.6723C45.0001 30.8373 44.8341 31.0023 44.6671 31.0023H43.6671C43.6671 30.8373 43.5001 30.8373 43.5001 30.6723L44.4991 24.2293ZM37.6661 24.5593C38.0011 25.0553 38.1671 25.7163 38.0011 26.2113V26.3773C37.8331 27.8633 36.5001 28.8553 35.1671 28.6893H34.3341C34.1671 28.6893 34.0001 28.8553 34.0001 29.0203L33.6671 30.8373C33.6671 30.8373 33.6671 31.0023 33.5011 31.0023H32.1661C32.0001 31.0023 32.0001 31.0023 32.0001 30.8373L33.0001 24.3943C33.0001 24.2293 33.1661 24.0643 33.3331 24.0643H35.8331C36.5001 23.8993 37.1671 24.0643 37.6661 24.5593ZM35.8331 25.7163C35.6671 25.3853 35.3341 25.3853 34.8331 25.3853H34.6671C34.6671 25.3853 34.5001 25.3853 34.5001 25.5513L34.1661 27.2033H34.6671C35.3341 27.2033 36.0001 27.2033 36.1671 26.3773C36.1671 26.0463 36.1671 25.8813 35.8331 25.7163ZM43.5001 26.3773L42.8331 30.5073C42.8331 30.6723 42.6671 30.8373 42.5001 30.8373H41.5001C41.3341 30.8373 41.3341 30.8373 41.3341 30.6723V30.3413C40.8341 30.8373 40.3331 31.0023 39.6671 31.0023C39.1671 31.0023 38.5001 30.8373 38.1671 30.3413C37.6671 29.8463 37.5001 29.1853 37.6661 28.5243C38.0011 27.2033 39.1671 26.0463 40.6671 26.2113C41.1661 26.2113 41.6661 26.3773 42.0001 26.7073V26.5423C42.0001 26.3773 42.0001 26.3773 42.1671 26.3773H43.5001ZM41.5001 27.8633C41.2711 27.6563 40.9751 27.5393 40.6671 27.5333C40.0001 27.5333 39.5001 28.0293 39.3331 28.6893C39.1671 29.0203 39.3331 29.3513 39.5001 29.5153C39.6671 29.6813 40.0001 29.8463 40.3341 29.8463C41.0001 29.8463 41.5001 29.3513 41.6661 28.6893C41.6661 28.3593 41.5001 28.0293 41.5001 27.8633Z" fill="#179BD7"/>
<path d="M26.5101 22.0022L26.8451 19.8472H23.0001L25.3411 4.2162V4.0362H31.0241C32.3611 3.8572 33.6981 4.39521 34.7011 5.29421C35.0351 5.65421 35.2031 6.0132 35.3711 6.5522C35.5931 7.0312 35.5931 7.57021 35.3711 8.16921V8.7072L35.7051 8.88719C35.8721 9.06719 36.2051 9.24619 36.3731 9.42619C36.7081 9.78519 36.8751 10.1452 36.8751 10.6842C37.0421 11.2702 37.0421 11.8942 36.8751 12.4802C36.7081 13.1992 36.5401 13.9172 36.2051 14.4562C35.8721 14.9962 35.5381 15.3552 35.2031 15.7152C34.7011 16.0742 34.3681 16.2532 33.6981 16.4332C33.1971 16.6132 32.5291 16.6132 31.8601 16.6132H31.3581C31.0241 16.6132 30.6901 16.7922 30.5221 16.9722C30.3551 17.1522 30.1881 17.5112 30.0211 17.8702V18.0492L29.5201 21.8232V22.0022H26.5101Z" fill="#253B80"/>
<path d="M36.5671 8.0022V8.3522C36.2091 11.6772 33.1651 13.9522 29.7611 13.6022H27.9701C27.6121 13.6022 27.2541 13.9522 27.0751 14.3022L26.1801 19.9022L26.0001 21.4772C26.0001 21.6522 26.1801 22.0022 26.3581 22.0022H29.4041C29.7611 22.0022 30.1191 21.6522 30.1191 21.3022V21.1272L30.6571 17.4522V17.2772C30.6571 16.9272 31.0151 16.7522 31.3731 16.7522H31.9101C34.7761 17.1022 37.4631 15.0022 37.8211 12.0272C38.1791 10.8022 38.0001 9.57719 37.2831 8.52719C37.1041 8.17719 36.9251 8.0022 36.5671 8.0022Z" fill="#179BD7"/>
<path d="M36.0571 7.1812H35.3021C34.7361 7.1812 34.1691 7.0022 33.6041 7.0022H28.5091C28.3211 7.1812 28.1321 7.36119 28.1321 7.54019L27.0001 13.8232V14.0022C27.0001 13.6432 27.3771 13.2842 27.9431 13.2842H29.8301C33.4151 13.6432 36.6231 11.3102 37.0001 7.8992V7.54019C36.8111 7.36119 36.6231 7.3612 36.2451 7.1812H36.0571Z" fill="#222D65"/>
</svg>
