<svg width="31" height="31" viewBox="0 0 31 31" fill="none" xmlns="http://www.w3.org/2000/svg">
<path d="M15.5056 31.0014C13.2136 31.0024 10.9496 30.4954 8.87663 29.5154C6.80463 28.5364 4.97463 27.1094 3.52063 25.3374C2.06563 23.5654 1.02262 21.4934 0.46562 19.2694C-0.0923805 17.0464 -0.148373 14.7264 0.298627 12.4784C0.895627 9.47139 2.37162 6.70839 4.53962 4.54039C6.70762 2.37239 9.47063 0.896391 12.4776 0.299391C15.7386 -0.348609 19.1216 0.0693922 22.1266 1.49139C25.1316 2.91239 27.5996 5.26339 29.1666 8.19539C30.7336 11.1274 31.3166 14.4854 30.8286 17.7744C30.3406 21.0634 28.8086 24.1074 26.4576 26.4584C23.5526 29.3634 19.6136 30.9974 15.5056 31.0014Z" fill="#FC021C"/>
<path d="M24.0006 13.0442C24.0006 12.5142 23.8996 11.9892 23.7026 11.4972C23.5076 11.0092 23.2186 10.5642 22.8536 10.1862C22.4926 9.8122 22.0606 9.5152 21.5836 9.3102C21.1096 9.1072 20.5996 9.0022 20.0846 9.0022H9.91663C9.39963 9.0032 8.88762 9.10919 8.41162 9.31219C7.93562 9.51619 7.50563 9.8132 7.14763 10.1862C6.40963 10.9542 5.99763 11.9792 6.00063 13.0442V17.9602C6.00063 19.0322 6.41363 20.0602 7.14763 20.8182C7.50563 21.1912 7.93562 21.4882 8.41162 21.6922C8.88762 21.8952 9.39963 22.0012 9.91663 22.0022H20.0846C20.6016 22.0012 21.1136 21.8952 21.5896 21.6922C22.0656 21.4882 22.4956 21.1912 22.8536 20.8182C23.5916 20.0502 24.0026 19.0252 24.0006 17.9602V13.0442ZM17.5986 15.7472L13.5496 18.0432C13.3686 18.1422 13.2136 18.0102 13.2136 17.8062V13.0932C13.2076 13.0502 13.2136 13.0052 13.2306 12.9652C13.2486 12.9252 13.2766 12.8902 13.3126 12.8652C13.3476 12.8412 13.3896 12.8272 13.4326 12.8262C13.4756 12.8242 13.5176 12.8352 13.5546 12.8562L17.6356 15.2732C17.6936 15.3172 17.7326 15.3812 17.7436 15.4532C17.7546 15.5252 17.7366 15.5982 17.6946 15.6572C17.6676 15.6962 17.6306 15.7272 17.5876 15.7472H17.5986Z" fill="#DCDCDC"/>
</svg>
