<svg width="31" height="31" viewBox="0 0 31 31" fill="none" xmlns="http://www.w3.org/2000/svg">
<path d="M15.5056 31.0006C12.4396 31.0016 9.44261 30.0936 6.89361 28.3906C4.66641 26.9036 2.86241 24.8646 1.65761 22.4726C0.452905 20.0816 -0.111691 17.4176 0.0191086 14.7436C0.149909 12.0686 0.971406 9.47257 2.40381 7.20957C3.83611 4.94757 5.83061 3.09357 8.19161 1.83157C10.5536 0.568568 13.2026 -0.0604279 15.8796 0.00457213C18.5566 0.0695721 21.1716 0.827569 23.4686 2.20457C25.7656 3.58157 27.6666 5.52957 28.9866 7.85957C30.3066 10.1906 31.0006 12.8226 31.0006 15.5006C30.9946 19.6086 29.3596 23.5466 26.4556 26.4516C23.5516 29.3576 19.6136 30.9926 15.5056 31.0006Z" fill="#2D64BC"/>
<path d="M24.0006 16.3973V21.7553C24.0006 21.8043 23.9856 21.8513 23.9586 21.8913C23.9306 21.9313 23.8916 21.9613 23.8456 21.9783C23.8146 21.9913 23.7816 21.9973 23.7476 21.9973H20.7836C20.7166 21.9973 20.6516 21.9723 20.6026 21.9263C20.5786 21.9043 20.5606 21.8773 20.5486 21.8473C20.5356 21.8183 20.5296 21.7873 20.5306 21.7553V16.7693C20.5306 15.4563 20.0306 14.5613 18.7716 14.5613C18.3826 14.5633 18.0016 14.6783 17.6766 14.8933C17.3616 15.1003 17.1206 15.4013 16.9856 15.7533C16.8996 16.0073 16.8616 16.2753 16.8726 16.5433V21.7653C16.8726 21.7973 16.8656 21.8283 16.8526 21.8573C16.8396 21.8863 16.8206 21.9123 16.7976 21.9333C16.7496 21.9783 16.6856 22.0023 16.6196 22.0023H13.6606C13.6106 22.0033 13.5626 21.9903 13.5196 21.9653C13.4776 21.9393 13.4436 21.9023 13.4216 21.8573C13.4086 21.8283 13.4016 21.7973 13.4016 21.7653C13.4016 20.4323 13.4396 13.9923 13.4016 12.4783C13.4016 12.4153 13.4286 12.3543 13.4756 12.3093C13.5246 12.2643 13.5876 12.2383 13.6546 12.2363H16.6086C16.6416 12.2363 16.6756 12.2413 16.7066 12.2533C16.7376 12.2643 16.7656 12.2813 16.7886 12.3043C16.8126 12.3253 16.8316 12.3513 16.8436 12.3803C16.8566 12.4103 16.8626 12.4413 16.8616 12.4733V13.6153C16.8636 13.6273 16.8636 13.6383 16.8616 13.6503V13.6153C17.1776 13.1053 17.6366 12.6853 18.1896 12.4013C18.7486 12.1163 19.3706 11.9793 19.9976 12.0053C22.2846 11.9953 24.0006 13.3983 24.0006 16.3973ZM8.25862 22.0023H11.2176C11.2836 22.0023 11.3476 21.9783 11.3966 21.9333C11.4196 21.9113 11.4386 21.8853 11.4506 21.8573C11.4636 21.8283 11.4706 21.7973 11.4706 21.7653V12.4733C11.4706 12.4413 11.4646 12.4103 11.4526 12.3813C11.4396 12.3523 11.4216 12.3263 11.3986 12.3043C11.3486 12.2603 11.2846 12.2363 11.2176 12.2363H8.25862C8.19162 12.2363 8.12662 12.2603 8.07662 12.3043C8.05362 12.3263 8.03463 12.3523 8.02163 12.3813C8.00863 12.4103 8.00162 12.4413 8.00062 12.4733V21.7653C8.00162 21.7973 8.00863 21.8283 8.02163 21.8573C8.03563 21.8863 8.05462 21.9123 8.07862 21.9333C8.12762 21.9783 8.19262 22.0023 8.25862 22.0023ZM9.99462 11.0023C10.3906 11.0033 10.7776 10.8863 11.1076 10.6673C11.4366 10.4483 11.6936 10.1363 11.8466 9.77129C11.9606 9.49829 12.0126 9.20329 11.9996 8.90729C11.9856 8.61129 11.9066 8.32229 11.7666 8.06129C11.6276 7.80029 11.4326 7.57328 11.1946 7.39628C10.9566 7.22028 10.6826 7.09929 10.3926 7.04129C10.0366 6.96929 9.66862 6.99529 9.32662 7.11629C8.98462 7.23829 8.68262 7.45028 8.45162 7.73028C8.22162 8.01028 8.07162 8.34829 8.01862 8.70729C7.96562 9.06629 8.01162 9.43229 8.15062 9.76729C8.30162 10.1323 8.55762 10.4443 8.88562 10.6643C9.21362 10.8843 9.59962 11.0013 9.99462 11.0023Z" fill="#DCDCDC"/>
</svg>
