<svg width="30" height="22" viewBox="0 0 30 22" fill="none" xmlns="http://www.w3.org/2000/svg">
<path d="M26.8461 3.25957C27.0106 3.62857 27.012 17.8287 26.8461 18.2201L19.0916 10.7398C21.1638 8.74425 25.1447 4.89957 26.8461 3.25957ZM17.8577 11.9309C17.5127 12.3675 17.0733 12.7204 16.5725 12.9629C16.0716 13.2055 15.5224 13.3315 14.9659 13.3315C14.4094 13.3315 13.8601 13.2055 13.3593 12.9629C12.8584 12.7204 12.419 12.3675 12.074 11.9309L4.33668 19.4111C4.50157 19.4555 4.67147 19.4785 4.84222 19.4797H25.0981C25.2688 19.4785 25.4387 19.4555 25.6036 19.4111L17.8577 11.9309ZM3 3.85079V17.6289C2.99996 17.8297 3.03178 18.0293 3.09425 18.2201L10.8402 10.7398C8.61235 8.58916 4.73083 4.83617 3.09425 3.25957C3.03178 3.45042 2.99996 3.64997 3 3.85079ZM4.33668 2.06855C6.70158 4.35633 13.4792 10.9026 13.6849 11.0912C14.0253 11.4319 14.4868 11.624 14.9684 11.6256C15.45 11.6272 15.9127 11.4382 16.2554 11.0997C16.536 10.7971 24.3008 3.3471 25.6122 2.07712C25.4455 2.02641 25.2723 2.00042 25.0981 2H4.84222C4.67147 2.00115 4.50157 2.02419 4.33668 2.06855Z" fill="#094380"/>
</svg>
