<svg width="59" height="38" viewBox="0 0 59 38" fill="none" xmlns="http://www.w3.org/2000/svg">
<path d="M6.23112 0.00219727H52.3511C55.9971 0.00219727 59.0001 2.99219 59.0001 6.62219V31.3832C59.0001 35.0132 56.2121 38.0022 52.5651 38.0022H6.44612C2.79912 38.0022 0.0111238 35.0132 0.0111238 31.3832V6.62219C-0.203876 2.99219 2.79912 0.00219727 6.23112 0.00219727Z" fill="#3D95CE"/>
<path d="M40.0001 12.2742C40.0001 17.8272 35.3581 25.0902 31.3791 30.0022H22.5371L19.0001 9.07019L26.7371 8.4292L28.5061 23.3802C30.7151 20.2482 32.0421 16.8302 32.4841 13.1282C32.4841 11.8472 32.2631 10.5652 31.8211 9.49719L38.6741 8.0022C39.5581 9.0702 40.0001 10.7792 40.0001 12.2742Z" fill="white"/>
</svg>
