<svg width="30" height="22" viewBox="0 0 30 22" fill="none" xmlns="http://www.w3.org/2000/svg">
<path d="M10.1453 1C6.19907 1 3 4.19906 3 8.14532C3 11.5437 8.29895 18.849 9.77035 20.8121C9.95816 21.0626 10.3325 21.0626 10.5203 20.8121C11.9917 18.849 17.2906 11.5437 17.2906 8.14532C17.2906 4.19906 14.0916 1 10.1453 1ZM10.1453 10.0873C8.94601 10.0873 7.97378 9.11509 7.97378 7.91578C7.97378 6.71647 8.94601 5.74424 10.1453 5.74424C11.3446 5.74424 12.3169 6.71647 12.3169 7.91578C12.3169 9.11509 11.3446 10.0873 10.1453 10.0873Z" fill="#094380"/>
</svg>
