<svg width="56" height="38" viewBox="0 0 56 38" fill="none" xmlns="http://www.w3.org/2000/svg">
<path d="M6.17609 0H49.8231C53.3231 0.192 56.0001 2.87901 56.0001 6.14101V31.859C56.0001 35.122 53.3231 37.808 49.8231 38H6.17609C2.67609 37.808 9.15527e-05 35.122 9.15527e-05 31.859V6.14101C9.15527e-05 2.87901 2.67609 0 6.17609 0Z" fill="#6C1CD3"/>
<path d="M10.058 12.4928L6.24774 12.4577L6.24774 14.9855H12.5623L6 23.3971V25.5362H10.058V28H12.4927V25.5362H16.6319C16.6666 25.4377 16.6788 25.1719 16.4586 24.9284C16.0933 24.5226 15.8029 24.0985 15.5362 23.5652C15.4145 23.3275 15.322 23.0429 15.2872 23.0197C14.4721 22.9823 9.78296 22.992 9.78549 22.9623L16.3536 14.4992V12.4928H12.4927V10H10.058V12.4928Z" fill="white"/>
<path d="M27.6406 11.3164C27.5826 11.3396 27.5652 12.6208 27.5652 17.4729C27.5652 24.0294 27.5594 23.9193 27.8493 24.4816C28.1101 24.986 28.7478 25.4381 29.4609 25.6236C29.8551 25.728 31.0145 25.7396 31.4609 25.6468C32.0348 25.5251 32.1449 25.3512 31.9188 24.9048C31.7739 24.6265 31.5826 24.0178 31.5362 23.6816C31.4725 23.2816 31.3913 23.2178 30.9043 23.2294C30.6725 23.2352 30.4522 23.2178 30.4116 23.1947C30.1739 23.0439 30.1739 23.0033 30.1739 17.1309C30.1739 13.357 30.1565 11.4613 30.1159 11.386C30.058 11.2816 29.9826 11.2758 28.8812 11.2816C28.2377 11.2816 27.6754 11.299 27.6406 11.3164Z" fill="white"/>
<path d="M32.9564 11.3339C32.8811 11.3803 32.8695 12.1223 32.8695 17.4325C32.8695 23.1542 32.8753 23.502 32.9796 23.902C33.1767 24.6904 33.6231 25.1716 34.4695 25.5252C34.7941 25.6586 34.939 25.6817 35.5941 25.6991C36.4695 25.7223 36.9158 25.6586 37.3622 25.4325C37.8028 25.218 37.8144 25.0673 37.4376 24.5165C37.2869 24.2962 37.055 23.9194 36.9274 23.6817L36.6956 23.247L36.2724 23.2412C35.7448 23.2296 35.6927 23.2064 35.5941 22.9571C35.5187 22.789 35.5071 21.9252 35.5071 17.131C35.5071 13.3571 35.4898 11.4614 35.4492 11.3861C35.3912 11.2817 35.3158 11.2759 34.2144 11.2759C33.5709 11.2759 33.0028 11.3049 32.9564 11.3339Z" fill="white"/>
<path d="M48.3767 12.5825C47.9071 12.797 47.6636 13.168 47.6578 13.684C47.652 14.1246 47.8317 14.4608 48.197 14.6985C48.6491 15.0057 49.3738 14.9188 49.7506 14.513C50.2317 13.997 50.1332 13.1043 49.5419 12.7043C49.2346 12.4956 48.6955 12.4434 48.3767 12.5825ZM49.3042 12.797C49.9593 13.1275 50.0578 13.9738 49.5013 14.4666C49.2636 14.6753 49.0955 14.7217 48.7303 14.6869C47.7216 14.5883 47.5245 13.1738 48.4636 12.7507C48.7187 12.6347 49.0143 12.6521 49.3042 12.797Z" fill="white"/>
<path d="M48.4172 13.0567C48.3766 13.1263 48.3708 14.2046 48.4114 14.3147C48.4288 14.3669 48.481 14.4075 48.5274 14.4075C48.5853 14.4075 48.6085 14.3263 48.6085 14.1176C48.6085 13.8567 48.6201 13.8278 48.7419 13.8278C48.8346 13.8278 48.9158 13.9089 49.0433 14.1176C49.1477 14.2915 49.252 14.4075 49.3158 14.4075C49.4549 14.4075 49.4491 14.3843 49.2346 14.0712C49.1071 13.8857 49.0723 13.7988 49.1245 13.7814C49.2752 13.7292 49.4201 13.5379 49.4201 13.393C49.4201 13.1321 49.2346 13.0162 48.8172 13.0162C48.6085 13.0162 48.4288 13.0336 48.4172 13.0567ZM49.1187 13.2423C49.165 13.2654 49.1882 13.3524 49.1766 13.4278C49.1592 13.5495 49.1245 13.5669 48.8868 13.5843L48.6085 13.6017V13.3988C48.6085 13.1959 48.6143 13.1901 48.8288 13.1901C48.9448 13.1901 49.0781 13.2133 49.1187 13.2423Z" fill="white"/>
<path d="M20.348 14.9573C20.319 14.9689 20.0929 15.021 19.8552 15.0732C18.3654 15.4152 17.0494 16.5573 16.4929 18.0065C16.1856 18.8065 16.0755 19.4268 16.0697 20.3486C16.0639 21.6413 16.3248 22.592 16.9219 23.4964C17.5943 24.5109 18.5799 25.2007 19.8552 25.5486C20.29 25.6645 20.4813 25.6819 21.4784 25.6819C22.4639 25.6819 22.6668 25.6645 23.0784 25.5543C24.0987 25.2703 24.9683 24.8007 25.6697 24.1341C26.1161 23.7167 26.1103 23.6007 25.6581 23.2529C25.4726 23.108 25.1364 22.7949 24.9161 22.5515C24.6378 22.2558 24.4697 22.1167 24.3827 22.1167C24.3016 22.1167 24.1161 22.2326 23.9364 22.4065C23.3161 22.9688 22.5335 23.2355 21.5074 23.2297C20.5683 23.2239 19.8842 22.9804 19.4494 22.4819C19.2291 22.2326 18.9509 21.6645 18.8929 21.3457L18.8581 21.1312H22.4697C24.4581 21.1312 26.1219 21.108 26.1625 21.079C26.3538 20.9573 26.4001 20.1167 26.261 19.2007C25.9306 17.0094 24.6204 15.537 22.5625 15.0442C22.1972 14.9573 21.8958 14.9283 21.2465 14.9341C20.7827 14.9341 20.3827 14.9457 20.348 14.9573ZM21.8958 17.1949C22.319 17.2819 22.8407 17.5717 23.0842 17.85C23.3103 18.1051 23.5422 18.5631 23.6001 18.8587L23.6407 19.0442H21.2755H18.9161L18.9567 18.8587C19.1306 18.0761 19.803 17.421 20.6378 17.2123C21.0088 17.1196 21.5074 17.1138 21.8958 17.1949Z" fill="white"/>
<path d="M41.4203 15.0096C39.3623 15.4676 37.971 16.9169 37.5362 19.056C37.2753 20.3198 37.4203 21.7922 37.913 22.8473C38.5855 24.3082 39.8087 25.2531 41.4782 25.5951C42.0058 25.7053 42.2145 25.7169 43.0435 25.6937C43.7449 25.6705 44.1217 25.6299 44.4464 25.543C45.4377 25.2821 46.3072 24.8067 46.9739 24.1691C47.484 23.6763 47.484 23.6531 46.9333 23.1951C46.6782 22.9864 46.3362 22.656 46.1739 22.4647C45.7971 22.0299 45.6985 22.0241 45.2753 22.4067C44.6435 22.9807 43.8898 23.2357 42.8406 23.2299C41.3681 23.2241 40.5101 22.5922 40.2319 21.3169L40.1913 21.1664H47.5362C47.7855 20.9867 47.6927 19.085 47.3913 18.2038C47.3333 18.0299 47.1768 17.6821 47.0492 17.4386C46.371 16.1401 45.2869 15.3343 43.7797 15.0154C43.2985 14.9111 41.8782 14.9111 41.4203 15.0096ZM43.229 17.1951C43.6232 17.2821 44.029 17.485 44.3188 17.7459C44.5623 17.972 44.9565 18.685 44.9565 18.9053V19.0444H40.2493L40.2898 18.8821C40.5913 17.6415 41.8666 16.9053 43.229 17.1951Z" fill="white"/>
</svg>
