<svg width="56" height="38" viewBox="0 0 56 38" fill="none" xmlns="http://www.w3.org/2000/svg">
<path d="M6.17609 0.00219727H49.8231C53.3231 0.194197 56.0001 2.8812 56.0001 6.1432V31.8612C56.0001 35.1242 53.3231 37.8102 49.8231 38.0022H6.17609C2.67609 37.8102 9.15527e-05 35.1242 9.15527e-05 31.8612V6.1432C9.15527e-05 2.8812 2.67609 0.00219727 6.17609 0.00219727Z" fill="white"/>
<path fill-rule="evenodd" clip-rule="evenodd" d="M18.5501 24.8182H15.1681L12.7801 15.5872C12.7801 15.2172 12.3821 14.8482 11.9841 14.6642C10.9901 14.1102 9.99509 13.9252 9.00009 13.7412V13.3712H14.3721C15.1681 13.3712 15.5651 13.9252 15.7641 14.4792L16.9581 21.1252L20.1411 13.3712H23.3241L18.5501 24.8182ZM25.3141 24.8182H22.1311L24.7171 13.3712H27.9001L25.3141 24.8182ZM36.2561 20.9402C36.2561 23.3412 34.0681 25.0022 30.6861 24.8182C29.4921 24.8182 28.2991 24.6332 27.3041 24.2632L27.9001 21.8642C28.8951 22.4182 29.8901 22.6022 31.0841 22.6022C31.8801 22.6022 32.8741 22.0482 32.8741 21.4952C32.8741 20.9402 32.2771 20.5712 31.2821 20.0172C30.2881 19.4642 28.6961 18.5412 28.6961 16.8792C28.6961 14.6642 30.8851 13.0022 33.8691 13.0022C34.8641 13.0022 35.6591 13.1872 36.6541 13.5562L36.0581 15.9562C35.1071 15.5832 34.0941 15.3952 33.0731 15.4022C32.4761 15.4022 31.8801 15.7712 31.8801 16.3252C31.8801 17.8022 36.0581 17.9862 36.2561 20.9402ZM47.0001 25.0022H44.4131L44.0161 23.3412H40.0361L39.4401 25.0022H36.2561L40.8321 14.2942C41.0311 13.7412 41.4291 13.3712 42.0261 13.3712H44.6121L47.0001 24.8182V25.0022ZM40.8321 20.5712H43.4181L42.4231 16.3252L40.8321 20.5712Z" fill="#172B85"/>
</svg>
