<svg width="61" height="38" viewBox="0 0 61 38" fill="none" xmlns="http://www.w3.org/2000/svg">
<path d="M6.65412 0.00219727H54.3461C58.1171 0.00219727 61.0001 2.7582 61.0001 6.1062V31.8982C61.0001 35.2452 58.1171 38.0022 54.3461 38.0022H6.65412C2.88412 38.0022 0.00012207 35.2452 0.00012207 31.8982V6.1062C0.00012207 2.7582 2.88312 0.00219727 6.65412 0.00219727Z" fill="white"/>
<path fill-rule="evenodd" clip-rule="evenodd" d="M29.9996 28.9652C27.8834 30.8342 24.8251 32.0022 22.0028 32.0022C15.182 31.7682 9.7724 25.9272 10.0075 18.9182C10.2425 12.3762 15.4171 7.2362 22.0028 7.0022C25.061 7.0022 27.8834 8.1702 29.9996 10.0392C32.3519 8.1702 35.1742 7.0022 37.9965 7.0022C44.8181 7.2362 50.2281 13.0772 49.9931 20.0862C49.7571 26.6282 44.5821 31.7682 37.9965 32.0022C35.1742 32.0022 32.3519 30.8342 29.9996 28.9652Z" fill="#ED0006"/>
<path fill-rule="evenodd" clip-rule="evenodd" d="M30.0001 28.9652C35.1745 24.2922 35.8806 16.3482 31.1762 11.2082C30.7061 10.7402 30.4711 10.2732 30.0001 10.0392C32.3523 8.1702 35.1745 7.0022 37.9968 7.0022C44.8181 7.2362 50.2281 13.0772 49.9931 20.0862C49.7571 26.6282 44.5821 31.7682 37.9968 32.0022C35.1745 32.0022 32.3523 30.8342 30.0001 28.9652Z" fill="#F9A000"/>
<path fill-rule="evenodd" clip-rule="evenodd" d="M29.9999 29.0022C34.7845 24.5452 35.4373 16.5702 31.0874 11.1752C30.6528 10.7062 30.4354 10.2372 29.9999 10.0022C25.2154 14.4592 24.5634 22.4342 28.9124 27.8292C29.3479 28.2982 29.5653 28.5332 29.9999 29.0022Z" fill="#FF5E00"/>
</svg>
