<svg width="65" height="38" viewBox="0 0 65 38" fill="none" xmlns="http://www.w3.org/2000/svg">
<path d="M7.1431 0.00219727H57.8581C61.9051 0.00219727 65.0001 2.7582 65.0001 6.1062V31.8982C65.0001 35.2452 61.9051 38.0022 57.8581 38.0022H7.1431C3.0951 38.0022 9.15527e-05 35.2452 9.15527e-05 31.8982V6.1062C9.15527e-05 2.7582 3.3341 0.00219727 7.1431 0.00219727Z" fill="white"/>
<path d="M10.9581 26.0023L11.3751 24.0973H7.00009L9.50009 9.24028V9.05028H15.7501C17.2081 8.85928 18.6671 9.24028 19.7081 10.1923C20.1251 10.5733 20.3331 10.9543 20.3331 11.3353C20.5421 11.9073 20.5421 12.4783 20.3331 12.8593V13.2403L20.7501 13.4303C21.3061 13.8113 21.7221 14.3833 22.0001 15.1453V16.8593C21.7921 17.6213 21.5831 18.1923 21.1661 18.7643C20.9581 19.1453 20.5421 19.7163 19.9171 19.9073C19.5001 20.2873 18.8751 20.4783 18.2501 20.6693C17.6251 20.8593 17.0001 20.8593 16.3751 20.8593H15.9591C15.5411 20.8593 15.3331 21.0493 15.1251 21.2403C14.9171 21.4303 14.7091 21.8123 14.7091 22.0023V22.1923L14.0831 25.6213V25.8113L10.9581 26.0023Z" fill="#253B80"/>
<path d="M22.2671 13.0022V13.3682C21.8341 16.2982 18.8001 18.6782 15.1161 18.3122H12.9501C12.5171 18.3122 12.0831 18.6782 12.0831 19.0442L11.2161 24.1712L11.0001 25.6362C11.0001 25.8192 11.2171 26.0022 11.4331 26.0022H14.6831C15.1161 26.0022 15.3331 25.8192 15.5491 25.4532V25.2692L16.2001 21.9742V21.7912C16.2001 21.4252 16.6331 21.2422 17.0671 21.2422H17.5001C20.7501 21.6082 23.5671 19.5942 23.7831 16.8472C24.0011 16.2932 24.0561 15.6882 23.9411 15.1042C23.8261 14.5202 23.5461 13.9812 23.1341 13.5512C22.9171 13.3682 22.4831 13.1852 22.2671 13.0022Z" fill="#179BD7"/>
<path d="M20.5551 12.2022H19.6671C19.2221 12.2022 18.5561 12.0022 18.1111 12.0022H12.9991C12.5551 12.0022 12.3331 12.2022 12.1101 12.6022L11.0001 18.8022V19.0022C11.0001 18.6022 11.4441 18.2032 11.8881 18.2032H13.6671C17.2221 18.6022 20.5551 16.2022 21.0001 13.0022V12.6022C20.7771 12.4022 20.5551 12.4022 20.3331 12.4022L20.5551 12.2022Z" fill="#222D65"/>
<path fill-rule="evenodd" clip-rule="evenodd" d="M31.2861 20.9292H29.1431V20.5392C29.1431 20.3432 29.1431 20.3432 28.9291 20.1482C28.9291 19.9532 28.7141 19.9532 28.5001 19.9532H28.0721C27.6431 19.9532 27.4291 19.9532 27.0001 20.1482C26.7861 20.3432 26.3571 20.5392 26.3571 20.9292C26.1431 21.3192 25.9291 21.7102 25.9291 22.0992V23.2702C25.9291 23.4652 26.1431 23.6612 26.3571 23.8562C26.5721 24.0512 26.7861 24.0512 27.2151 24.0512H27.8581C28.0721 24.0512 28.2861 23.8562 28.2861 23.8562C28.5001 23.8562 28.5001 23.6612 28.7141 23.4652C28.7141 23.2702 28.9291 23.2702 28.9291 23.0752H31.0711C31.0711 23.4652 30.8571 23.6612 30.6431 24.0512C30.4291 24.4412 30.2151 24.6362 29.7861 25.0262C29.3581 25.2212 29.1431 25.6112 28.7141 25.6112C28.2861 25.8062 27.6431 25.8062 27.2151 25.8062C26.5721 25.8062 25.9291 25.6112 25.2861 25.4162C24.6431 25.0262 24.4291 24.6362 24.2151 24.0512C24.0001 23.4652 24.0001 22.6852 24.0001 21.9052C24.0001 21.1242 24.4291 20.5392 24.8571 19.9532C25.2861 19.3682 25.7151 18.9782 26.3571 18.7832C27.0001 18.5882 27.6431 18.3932 28.2861 18.3932C28.7141 18.3932 29.1431 18.3932 29.5721 18.5882C30.0001 18.7832 30.2151 18.9782 30.6431 19.1732C30.8571 19.3682 31.0711 19.7582 31.2861 20.1482V20.9292ZM31.5011 25.6112L32.5721 20.1482H34.7141L34.5001 21.1242C34.7141 20.7342 34.9291 20.5392 35.1431 20.3432C35.3571 20.1482 35.7861 20.1482 36.0001 20.1482H36.4291L36.2151 21.7102C36.3571 21.5792 36.5001 21.3842 36.6431 21.1242C36.8571 20.7342 37.2861 20.3432 37.9291 20.1482C38.3571 19.9532 39.0001 19.7582 39.6431 19.7582C40.0721 19.7582 40.5001 19.7582 40.7141 19.9532C40.9291 20.1482 41.3571 20.3432 41.5711 20.5392C41.7861 20.7342 42.0001 21.1242 42.0001 21.5152V23.0752H38.3571V23.6612C38.3571 23.8562 38.5721 23.8562 38.5721 24.0512C38.7861 24.0512 38.7861 24.2462 39.0001 24.2462H39.4291C39.6431 24.2462 39.6431 24.2462 39.8581 24.0512C40.0721 24.0512 40.0721 23.8562 40.0721 23.8562H42.0001C41.7861 24.2462 41.5721 24.6362 41.3571 24.8312C41.1431 25.0262 40.7141 25.4162 40.2861 25.4162C39.6431 25.6112 39.2141 25.6112 38.5721 25.6112C37.9291 25.6112 37.5001 25.4162 37.0711 25.2212C36.6431 25.0262 36.4291 24.6362 36.2151 24.2462C36.0001 23.6612 36.0001 23.2702 36.0001 22.6852C36.0001 22.4252 36.0721 22.1642 36.2151 21.9052H35.3571C35.1431 21.9052 34.9291 21.9052 34.7141 22.0992C34.5001 22.0992 34.2861 22.2942 34.2861 22.4892C34.0721 22.6852 34.0721 22.8802 34.0721 23.0752L33.6431 26.0022L31.5011 25.6112ZM38.3571 23.0752L38.5721 21.9052H37.0711L36.8571 23.0752H38.3571ZM40.2861 21.9052V21.5152C40.2861 21.3192 40.0721 21.3192 40.0721 21.1242H39.2141C39.0001 21.1242 39.0001 21.3192 38.7861 21.5152C38.7861 21.7102 38.5721 21.7102 38.5721 21.9052H40.2861ZM44.5721 25.6112C44.1431 25.6112 43.7151 25.6112 43.5001 25.2212C43.3091 25.1392 43.1471 25.0032 43.0321 24.8302C42.9181 24.6572 42.8571 24.4542 42.8571 24.2462C42.6431 23.6612 42.6431 23.2702 42.8571 22.6852C42.8571 22.0992 43.0711 21.5152 43.5001 21.1242C43.7151 20.7342 44.1431 20.3432 44.5721 20.1482C45.0001 19.9532 45.4281 19.9532 45.6431 19.7582C46.0721 19.7582 46.5001 19.9532 46.9291 20.3432C47.1431 20.5392 47.1431 20.7342 47.1431 20.9292L47.5711 18.1972H49.7141L48.4291 25.6112H46.2861L46.5001 24.6362C46.2861 24.8312 46.2861 25.0262 46.0721 25.2212C45.8581 25.4162 45.6431 25.4162 45.4281 25.6112H44.5721ZM45.6431 24.2462C45.8581 24.2462 46.0721 24.2462 46.0721 24.0512L46.5001 23.6612C46.7141 23.4652 46.7141 23.2702 46.7141 22.8802V22.2942C46.7141 22.0992 46.7141 21.9052 46.5001 21.9052C46.2861 21.7102 46.2861 21.7102 46.0721 21.7102C45.8581 21.7102 45.6431 21.7102 45.6431 21.9052L45.2141 22.2942C45.2141 22.4892 45.0001 22.6852 45.0001 22.8802V23.6612C45.0001 23.8562 45.0001 24.0512 45.2141 24.0512C45.2141 24.0512 45.4281 24.0512 45.6431 24.2462ZM49.2861 25.6112L50.3571 20.1482H52.5001L51.6431 25.6112H49.2861ZM51.4281 19.5632C51.2141 19.5632 51.0001 19.5632 50.7861 19.3682C50.5721 19.1732 50.5721 18.9782 50.5721 18.7832C50.5721 18.5882 50.7861 18.3932 51.0001 18.1972C51.2141 18.0022 51.4281 18.0022 51.8571 18.0022C52.0721 18.0022 52.2861 18.0022 52.5001 18.1972C52.7141 18.3932 52.7141 18.5882 52.7141 18.7832C52.7141 18.9782 52.5001 19.1732 52.2861 19.3682C52.0721 19.3682 51.6431 19.5632 51.4281 19.5632ZM57.0001 20.1482L56.7861 21.5152H55.9291L55.5001 23.8562V24.2462H56.1431V25.6112H55.0711C54.6431 25.6112 54.2151 25.6112 53.7851 25.4162L53.1431 24.8312C52.9291 24.4412 52.9291 24.2462 53.1431 23.8562L53.5711 21.5152H52.9291L53.1431 20.1482H54.0001L54.2151 18.7832H56.3571L56.1431 20.1482H57.0001Z" fill="#002F84"/>
<path fill-rule="evenodd" clip-rule="evenodd" d="M32.2991 10.5402C32.5201 10.8992 32.7401 11.4382 32.5201 11.7972V11.9762C32.5201 13.0532 31.1951 13.9512 29.8711 13.7712H28.9871C28.9871 13.7712 28.7671 13.7712 28.7671 13.9512L28.5461 15.3862C28.5461 15.3862 28.5461 15.5662 28.3251 15.5662H27.2211C27.0001 15.5662 27.0001 15.3862 27.0001 15.3862L27.8831 10.1812C27.8831 10.1812 27.8831 10.0022 28.1041 10.0022H30.5331C31.1951 10.0022 31.6371 10.1812 32.2991 10.5402ZM30.7531 11.0792C30.5331 10.8992 30.0911 10.8992 29.6501 10.8992H29.4291C29.2081 10.8992 29.2081 11.0792 29.2081 11.0792L28.9871 12.5152H29.4291C29.8711 12.5152 30.5331 12.5152 30.7531 11.7972C30.9751 11.6172 30.7531 11.4382 30.7531 11.0792ZM38.0391 11.9762V12.3352L37.3771 15.5662C37.3771 15.5662 37.3771 15.7452 37.1561 15.7452H36.0521C35.8321 15.7452 35.8321 15.7452 35.8321 15.5662V15.2072C35.3901 15.5662 34.9481 15.7452 34.2861 15.7452C33.6241 15.7452 33.1821 15.5662 32.7401 15.2072C32.2991 14.8482 32.0781 14.3102 32.2991 13.7712C32.5201 12.6942 33.6241 11.7972 34.9481 11.7972C35.3901 11.7972 35.8321 11.7972 36.2731 12.1562V11.9762C36.2731 11.7972 36.4941 11.7972 36.4941 11.7972H37.5981C37.5981 11.7972 37.8181 11.7972 38.0391 11.9762ZM35.8321 12.8742C35.6101 12.6942 35.1691 12.6942 34.9481 12.6942C34.2861 12.6942 33.6241 13.0532 33.6241 13.5922C33.6241 13.9512 33.6241 14.1302 33.8441 14.3102C34.0651 14.4892 34.5061 14.4892 34.7281 14.4892C35.3901 14.4892 36.0521 14.1302 36.0521 13.5922C36.0521 13.4122 36.0521 13.2332 35.8321 12.8742ZM42.6751 11.7972H43.7791C43.7791 11.7972 44.0001 11.7972 44.0001 11.9762V12.1562L40.2471 16.8222L40.0261 17.0022H38.9221C38.7021 17.0022 38.7021 16.8222 38.7021 16.8222L39.8061 15.3862L38.4811 12.3352C38.4811 12.3352 38.4811 12.1562 38.7021 12.1562H39.8061C40.0261 12.1562 40.0261 12.1562 40.0261 12.3352L40.6881 14.1302L42.2341 12.1562C42.2341 11.9762 42.4551 11.7972 42.6751 11.7972Z" fill="#002F85"/>
<path fill-rule="evenodd" clip-rule="evenodd" d="M54.6561 15.6272L55.5081 10.1902C55.5081 10.1902 55.5081 10.0022 55.7211 10.0022H56.7871C56.7871 10.0022 57.0001 10.0022 57.0001 10.1902L56.1471 15.6272C56.1471 15.8142 55.9341 15.8142 55.9341 15.8142H54.8691C54.6561 15.8142 54.6561 15.6272 54.6561 15.6272ZM49.1151 10.5642C49.3281 10.9392 49.5411 11.5022 49.3281 11.8772V12.0652C49.3281 13.1902 48.0501 14.1272 46.7711 13.9392H46.1311C46.1311 13.9392 45.9181 13.9392 45.9181 14.1272L45.7051 15.6272C45.7051 15.8142 45.7051 15.8142 45.4921 15.8142H44.2131C44.0001 15.8142 44.0001 15.6272 44.0001 15.6272L44.8531 10.1902C44.8531 10.1902 44.8531 10.0022 45.0661 10.0022H47.4101C48.0501 10.0022 48.6891 10.1902 49.1151 10.5642ZM47.8361 11.1272C47.6231 10.9392 47.1971 10.9392 46.7711 10.9392H46.5571C46.3441 10.9392 46.3441 11.1272 46.3441 11.1272L46.1311 12.6272H46.5571C46.9841 12.6272 47.6231 12.6272 47.8361 11.8772V11.1272ZM54.4431 12.0652C54.6561 12.2522 54.6561 12.2522 54.6561 12.4392L54.0171 15.8142C54.0171 15.8142 54.0171 16.0022 53.8031 16.0022H52.7381C52.5241 16.0022 52.5241 15.8142 52.5241 15.8142V15.4392C52.0981 15.8142 51.6731 16.0022 51.0331 16.0022C50.6071 16.0022 50.1801 15.8142 49.7541 15.4392C49.3281 15.0652 49.1141 14.5022 49.3281 13.9392C49.5411 12.8142 50.6071 11.8772 51.8861 11.8772C52.3111 11.8772 52.7381 11.8772 53.1641 12.2522V12.0652C53.1641 11.8772 53.3771 11.8772 53.3771 11.8772H54.4431V12.0652ZM52.7381 13.0022C52.7381 12.8142 52.3111 12.8142 52.0981 12.8142C51.4591 12.8142 50.8201 13.1902 50.8201 13.7522V13.9392C50.8201 14.5022 51.2461 14.6892 51.6731 14.6892C52.3111 14.6892 52.9511 14.3142 52.9511 13.7522C52.7381 13.5642 52.7381 13.3772 52.7381 13.0022Z" fill="#009CDE"/>
</svg>
