<svg width="31" height="31" viewBox="0 0 31 31" fill="none" xmlns="http://www.w3.org/2000/svg">
<path d="M15.4816 31.0028C18.5486 31.0063 21.5466 30.1003 24.098 28.3986C26.6493 26.6981 28.6392 24.2788 29.8161 21.4472C30.9919 18.6146 31.3008 15.4983 30.7049 12.4899C30.1089 9.48157 28.6346 6.71779 26.4679 4.54764C24.8478 2.92519 22.8877 1.6828 20.7302 0.908895C18.5715 0.134989 16.2682 -0.149777 13.9867 0.0741275C11.7051 0.298032 9.50053 1.02487 7.53362 2.20295C5.5667 3.38103 3.8857 4.98166 2.61232 6.88772C1.05417 9.22092 0.157409 11.933 0.0196217 14.7347C-0.119314 17.5364 0.50532 20.3231 1.82578 22.7987C3.14739 25.2743 5.11431 27.3446 7.51985 28.789C9.92424 30.2335 12.6765 30.9994 15.4816 31.0028Z" fill="#AD3187"/>
<path d="M19.617 7H12.3534C10.9341 7.00167 9.57342 7.56628 8.56992 8.56994C7.56642 9.57361 7.00204 10.9344 7.00061 12.3536L7.00061 19.6173C7.00228 21.0365 7.56689 22.3972 8.57055 23.4007C9.57422 24.4042 10.935 24.9686 12.3543 24.97H19.6179C21.0371 24.9683 22.3978 24.4037 23.4013 23.4001C24.4048 22.3964 24.9692 21.0356 24.9706 19.6164V12.3527C24.9689 10.9335 24.4043 9.57281 23.4007 8.56931C22.397 7.56581 21.0362 7.00143 19.617 7V7ZM23.1633 19.6164C23.1633 20.0821 23.0715 20.5432 22.8933 20.9735C22.7151 21.4037 22.4539 21.7947 22.1246 22.124C21.7953 22.4533 21.4043 22.7145 20.9741 22.8927C20.5438 23.0709 20.0827 23.1626 19.617 23.1626H12.3534C11.413 23.1624 10.5112 22.7887 9.84633 22.1236C9.18146 21.4586 8.80796 20.5567 8.80796 19.6164V12.3527C8.8082 11.4124 9.18193 10.5106 9.84697 9.84572C10.512 9.18085 11.4139 8.80735 12.3543 8.80735H19.6179C20.5582 8.80759 21.46 9.18132 22.1249 9.84635C22.7898 10.5114 23.1633 11.4133 23.1633 12.3536V19.6173V19.6164Z" fill="white"/>
<path d="M15.9852 11.3374C14.7534 11.3393 13.5726 11.8296 12.7016 12.7007C11.8307 13.5718 11.3407 14.7527 11.339 15.9845C11.3404 17.2166 11.8305 18.3979 12.7016 19.2692C13.5728 20.1405 14.7539 20.6308 15.9861 20.6325C17.2184 20.631 18.3998 20.1409 19.2711 19.2695C20.1425 18.3982 20.6326 17.2168 20.6341 15.9845C20.6322 14.7524 20.1417 13.5713 19.2702 12.7003C18.3987 11.8293 17.2173 11.3395 15.9852 11.3383V11.3374ZM15.9852 18.8251C15.232 18.8251 14.5097 18.5259 13.9772 17.9934C13.4446 17.4608 13.1454 16.7385 13.1454 15.9854C13.1454 15.2322 13.4446 14.5099 13.9772 13.9774C14.5097 13.4448 15.232 13.1457 15.9852 13.1457C16.7383 13.1457 17.4606 13.4448 17.9932 13.9774C18.5257 14.5099 18.8249 15.2322 18.8249 15.9854C18.8249 16.7385 18.5257 17.4608 17.9932 17.9934C17.4606 18.5259 16.7383 18.8251 15.9852 18.8251Z" fill="white"/>
<path d="M20.6421 12.4861C21.2571 12.4861 21.7555 11.9876 21.7555 11.3727C21.7555 10.7578 21.2571 10.2593 20.6421 10.2593C20.0272 10.2593 19.5287 10.7578 19.5287 11.3727C19.5287 11.9876 20.0272 12.4861 20.6421 12.4861Z" fill="white"/>
</svg>
