<?xml version="1.0" standalone="no"?>
<!DOCTYPE svg PUBLIC "-//W3C//DTD SVG 20010904//EN"
 "http://www.w3.org/TR/2001/REC-SVG-20010904/DTD/svg10.dtd">
<svg version="1.0" xmlns="http://www.w3.org/2000/svg"
 width="2000.000000pt" height="2000.000000pt" viewBox="0 0 2000.000000 2000.000000"
 preserveAspectRatio="xMidYMid meet">

<g transform="translate(0.000000,2000.000000) scale(0.100000,-0.100000)"
fill="#000000" stroke="none">
<path d="M2350 13931 c-451 -162 -721 -385 -817 -676 -24 -71 -27 -95 -27
-220 0 -123 4 -150 27 -228 15 -49 38 -109 51 -135 14 -26 363 -561 778 -1189
414 -629 1021 -1549 1348 -2045 327 -497 621 -936 653 -976 341 -429 853 -713
1392 -772 72 -8 1889 -10 6421 -8 l6321 3 -1181 1721 c-650 947 -1201 1748
-1226 1780 -63 84 -202 226 -290 297 -280 225 -619 368 -972 406 -68 8 -1730
11 -5466 11 l-5369 0 -371 503 c-205 276 -455 615 -557 752 -102 138 -279 377
-393 532 -114 155 -209 282 -212 282 -3 0 -52 -17 -110 -38z m4572 -3126 c13
-13 226 -269 473 -568 l450 -543 5 565 5 566 300 0 300 0 0 -1080 0 -1080
-251 -3 -250 -2 -470 566 -469 567 -5 -564 -5 -564 -300 0 -300 0 -3 1070 c-1
589 0 1075 2 1082 4 9 71 12 250 13 l245 1 23 -26z m3658 -215 l0 -240 -545 0
-545 0 0 -180 0 -180 480 0 480 0 0 -230 0 -230 -480 0 -480 0 0 -195 0 -195
565 0 565 0 -2 -237 -3 -238 -867 -3 -868 -2 0 1085 0 1085 850 0 850 0 0
-240z m810 218 c6 -13 103 -318 216 -678 113 -360 207 -657 209 -659 2 -1 105
302 228 675 l224 679 284 0 284 0 215 -689 215 -688 133 408 c74 225 175 535
225 689 l92 280 293 3 c230 2 292 0 291 -10 0 -7 -157 -494 -348 -1083 l-347
-1070 -324 -3 c-178 -1 -327 1 -331 5 -6 7 -153 466 -377 1183 l-36 115 -87
-265 c-48 -146 -145 -439 -215 -652 l-127 -388 -328 0 -328 0 -56 173 c-367
1128 -645 1986 -645 1991 0 3 142 6 315 6 l315 0 10 -22z"/>
</g>
</svg>
